<?xml version="1.0" encoding="utf-8"?>
<!-- Generator: Adobe Illustrator 27.5.0, SVG Export Plug-In . SVG Version: 6.00 Build 0)  -->
<svg version="1.1" xmlns="http://www.w3.org/2000/svg" xmlns:xlink="http://www.w3.org/1999/xlink" x="0px" y="0px"
	 viewBox="0 0 675 1200" style="enable-background:new 0 0 675 1200;" xml:space="preserve">
<g id="Background">
	
		<rect x="-262.5" y="262.5" transform="matrix(-1.836970e-16 1 -1 -1.836970e-16 937.5 262.5)" style="fill:#EAE4E0;" width="1200" height="675"/>
</g>
<g id="Graphic_Elements">
	<g>
		<defs>
			<rect id="SVGID_1_" x="0" width="530.8" height="358.584"/>
		</defs>
		<clipPath id="SVGID_00000119807177723290791880000012987820372338862726_">
			<use xlink:href="#SVGID_1_"  style="overflow:visible;"/>
		</clipPath>
		<g style="clip-path:url(#SVGID_00000119807177723290791880000012987820372338862726_);">
			<path style="fill:#344D56;" d="M152.485,6.826c12.823,14.099,20.795,32.181,23.365,51.088c1.958,14.403,2.259,28.85,0.979,43.319
				c-0.536,6.062-1.63,12.049-3.399,17.885c-2.1,6.926-4.31,13.815-7.237,20.451c-0.925,2.096-2.117,3.895-4.184,5.098
				c-1.267,0.738-2.417,0.833-3.698,0.272c-1.742-0.762-3.283-1.842-4.7-3.088c-5.626-4.949-10.484-10.59-14.798-16.698
				c-6.908-9.78-11.769-20.575-15.611-31.861c-4.9-14.391-8.035-29.143-8.957-44.339c-0.875-14.427,0.608-28.62,4.358-42.571
				c0.6-2.231,1.453-4.394,2.179-6.592c0.178-0.539,0.57-1.025,0.429-1.648c4.199,0,8.397,0,12.596,0
				c0.532,0.633,0.395,1.364,0.271,2.075c-1.386,7.951-1.443,15.972-1.405,24.011c0.063,13.558,1.388,26.995,3.496,40.375
				c3.189,20.245,8.593,39.879,16.071,58.951c1.67,4.261,3.953,8.208,6.216,12.166c-1.607-3.159-2.767-6.501-3.92-9.838
				c-6.603-19.12-11.756-38.625-15.365-58.53c-1.873-10.328-2.927-20.759-3.877-31.211c-0.959-10.546-0.776-21.1-0.79-31.657
				c-0.003-2.156,0.085-4.328,1.04-6.342c4.771,0,7.902-0.104,11.612,3.316C149.016,3.174,150.793,4.966,152.485,6.826z"/>
			<path style="fill:#344D56;" d="M89.976,54.748c-0.246-2.746-0.527-5.49-0.751-8.235c-0.514-6.294-1.049-12.573-1.903-18.832
				C86.478,21.5,85.394,15.35,84.01,9.267c-0.848-3.725-1.531-7.492-2.759-11.124H53.887c-0.566,0.732-0.251,1.543-0.155,2.306
				c0.335,2.656,0.694,5.31,1.125,7.952c2.887,17.677,7.4,34.969,12.33,52.165c3.086,10.764,6.568,21.409,9.651,32.28
				c-1.105-1.88-2-3.746-2.859-5.638c-5.04-11.101-8.849-22.631-12.178-34.342c-4.893-17.216-9.018-34.591-11.282-52.37
				c-0.112-0.882-0.313-1.709-0.976-2.353H28.694c-1.17,1.882-0.686,3.763,0.002,5.645c0.291,8.112,1.225,16.148,2.606,24.149
				c1.603,9.285,3.509,18.494,6.81,27.333c3.772,10.1,9.142,19.333,15.726,27.873c3.936,5.106,7.881,10.188,12.878,14.342
				c3.733,3.103,7.523,6.127,11.799,8.455c2.52,1.372,3.881,0.906,5.407-1.549c1.467-2.361,2.495-4.89,3.026-7.62
				c0.311-0.388-0.035-0.976,0.398-1.313c1.382-1.513,1.156-3.482,1.464-5.286c1.08-6.308,1.28-12.699,1.724-19.067
				c0.124-1.799,0.009-3.598,0.017-5.398C90.566,62.044,90.302,58.394,89.976,54.748z"/>
			<path style="fill:#3E5C67;" d="M172.923,266.974c14.382,11.557,29.391,22.267,44.45,32.91c1.122,0.793,2.22,1.619,3.313,2.451
				c0.4,0.305,0.825,0.62,1.11,1.022c0.925,1.305,0.273,2.631-1.32,2.768c-0.74,0.064-1.425-0.154-2.118-0.376
				c-2.839-0.909-5.474-2.273-8.107-3.633c-2.057-1.063-4.122-2.064-6.371-2.696c-2.448-0.688-4.698-1.871-6.859-3.203
				c-2.4-1.479-4.777-2.996-7.164-4.496c-0.18-0.132-0.347-0.286-0.577-0.327l-0.149,0.012l-0.141-0.051
				c-0.751-0.775-0.625-1.679-0.387-2.598c0.521-0.913,1.24-0.598,1.832-0.181c1.064,0.749,2.286,1.204,3.085,1.776
				c-1.511-0.252-2.481-2.519-4.672-1.991c-0.524-0.071-0.69-0.486-0.813-0.899c-1.268-4.262-3.842-7.537-7.512-9.993
				c-0.363-0.243-0.655-0.565-0.853-0.962c-2.012-2.497-4.679-4.263-7.124-6.256c-5.084-4.145-9.806-8.721-15.065-12.56
				c1.027,1.056,2.437,1.77,3.423,2.951c0.444,0.531,1.354,1.085,0.344,1.924c-2.998-0.095-6-0.34-8.919,0.678
				c-0.604,0.21-1.081-0.249-1.527-0.618c-4.563-3.678-8.969-7.53-13.069-11.724c-0.178-0.104-0.305-0.271-0.475-0.384l0.01,0.009
				c-0.366-0.404-0.454-0.907-0.336-1.395c0.571-2.36,0.518-4.784,0.781-7.171c0.731-1.443,1.461-0.385,2.001,0.107
				c2.563,2.337,5.212,4.578,7.761,6.93c1.859,1.714,3.826,3.304,5.659,5.046c-4.885-4.547-10.009-8.846-14.336-13.965
				c-0.485-0.574-1.073-0.958-1.794-1.151c-0.984-0.605-1.288-1.713-1.86-2.607c-1.792-2.803-4.445-4.624-7.099-6.459
				c0.074-0.663-0.37-1.044-0.772-1.469c-6.419-6.779-12.112-14.165-17.973-21.413c-3.95-4.885-7.559-10.063-12.134-14.423
				c3.788,3.832,6.726,8.354,10.127,12.501c1.879,2.291,3.621,4.693,5.485,6.999c0.377,0.466,1.04,0.896,0.526,1.668
				c-1.679,0.166-2.967-0.793-4.34-1.507c-1.525-2.728-3.688-4.987-5.588-7.43c-7.185-9.241-14.045-18.72-20.958-28.161
				c-1.153-1.574-1.959-3.377-3.178-4.692c7.384,11.78,15.685,23.126,24.355,34.207c1.156,1.477,2.606,2.713,3.65,4.286
				c0.358,0.539,1.151,1.123,0.108,1.782c-1.483,0.212-2.946,1.081-4.459,0.129l0.007,0.004c-0.036-0.24-0.232-0.348-0.397-0.482
				c-11.196-13.318-21.451-27.289-29.141-42.967c-2.555-5.209-5.708-10.035-8.694-14.97c-3.633-6.003-6.86-12.221-10.128-18.42
				c-4.887-9.268-9.172-18.829-13.744-28.25c-1.016,0.117-0.536,0.734-0.413,1.233c1.125,7.051,1.62,14.18,2.608,21.246
				c0.989,7.07,2.15,14.115,3.23,21.172c0.534,3.49,0.845,7.014,1.578,10.474c0.223,1.051,0.319,2.143,0.907,3.089
				c0.664,0.825,0.717,1.862,0.937,2.828c1.064,4.684,2.512,9.262,3.781,13.891c0.14,1.51-0.431,2.558-1.951,2.981
				c-0.239-0.066-0.427-0.204-0.563-0.411c-1.526-4.055-2.124-8.356-3.243-12.522c-1.681-6.26-3.417-12.507-5.042-18.783
				c-0.308-1.188-0.572-2.379-0.82-3.578c-0.16-2.507,0.825-4.916,0.327-7.51c-0.567-2.951-1.208-5.779-3.135-8.169
				c-0.32-0.397-0.549-0.848-0.574-1.377c-0.258-4.68-0.874-9.321-1.412-13.972c-0.853-7.375-1.978-14.705-3.508-21.972
				c-0.073-0.349-0.075-0.718-0.078-0.702c0.474,3.047,1.203,6.413,1.717,9.816c1.26,8.343,2.036,16.745,3.112,25.11
				c0.028,0.214-0.06,0.426-0.123,0.632c-0.411,0.733-0.971,0.413-1.462,0.157c-2.078-1.088-4.221-2.141-4.054-5.041
				c-1.602-11.022-3.154-22.051-4.822-33.062c-1.254-8.281-2.372-16.592-4.425-24.731c-0.352-1.397-0.777-2.785-1.292-4.13
				c-3.46-9.032-7.029-18.024-10.412-27.084C8.91,29.467,6.98,21.821,4.464,14.367c-0.207-0.613-0.375-1.239-0.561-1.86
				c-0.335-0.433-0.586-1.091-1.313-0.492c-0.107-0.108-0.234-0.217-0.253-0.35C1.747,7.4,1.359,3.102,0.191-1.067
				c-0.08-0.287,0.088-0.557,0.27-0.79c0.869,0,1.737,0,2.606,0c1.535,2.968,2.408,6.194,3.468,9.33
				c5.307,15.699,10.278,31.504,14.507,47.535c0.893,3.385,2.03,6.696,3.093,10.029c-0.891-2.906-1.854-5.786-2.648-8.725
				c-3.17-11.732-5.842-23.605-9.707-35.141C9.55,14.517,7.509,7.797,5.024,1.226c-0.366-0.969-1.01-1.997-0.22-3.083
				c1.448,0,2.896,0,4.344,0c0.044,1.179,0.562,2.232,0.886,3.337c4.491,15.339,10.078,30.308,15.342,45.386
				c4.151,11.888,8.931,23.52,14.171,34.955c2.588,5.647,5.818,10.995,8.584,16.566c4.44,8.942,9.038,17.8,13.768,26.591
				c3.805,7.073,8.264,13.753,12.419,20.615c2.958,4.885,6.01,9.697,9.573,14.187c3.141,3.958,6.873,7.22,10.929,10.152
				c6.912,4.996,14.565,8.551,22.496,11.594c4.115,1.579,8.128,3.422,12.187,5.146c1.878,0.766,2.666,1.966,2.598,3.955
				c-4.397-1.585-8.805-3.146-13.116-4.964c-5.719-2.412-11.493-4.693-17.255-7.001c10.359,4.673,20.831,9.069,31.642,12.628
				c2.089,1.16,4.334,1.963,6.519,2.905c2.926,1.262,5.941,1.761,9.107,1.207c0.775-0.136,1.58-0.321,2.267,0.298
				c3.48,1.598,6.96,3.195,10.44,4.793c0.031,0.219,0.041,0.494-0.15,0.587c-2.258,1.099-4.487,2.245-6.603,3.608
				c-0.37,0.238-0.842,0.026-1.232-0.189c-2.277-1.097-4.563-2.177-6.829-3.295c-5.062-2.498-10.227-4.767-15.573-6.572
				c-8.288-2.798-16.449-5.932-24.613-9.064c-3.881-1.489-7.911-2.565-11.69-4.379c-0.192,0.602,0.149,0.828,0.34,1.098
				c9.379,13.309,19.154,26.31,30.031,38.447c6.57,7.331,13.692,14.121,20.715,21.007c1.442,1.414,2.854,2.858,4.28,4.288
				c1.608,0.493,2.788,1.572,3.943,2.742c5.407,5.482,11.16,10.602,16.782,15.858C171.856,265.33,172.46,266.081,172.923,266.974z"
				/>
			<path style="fill:#3E5C67;" d="M247.173-1.857c0.304,0.75,1.075,0.911,1.669,1.259c12.379,7.262,23.907,15.734,35.109,24.67
				c4.69,3.742,9.365,7.504,14.066,11.233c2.218,1.759,4.688,3.128,7.191,4.427c2.089,1.084,4.43,1.303,6.693,1.719
				c11.242,2.066,22.548,3.624,33.993,3.969c0.289,0.009,0.584-0.012,0.866,0.039c1.067,0.192,1.174-0.497,1.201-1.273
				c2.345,1.163,4.752,1.744,7.322,0.766c0.83,0.987,2.062,0.616,3.1,0.913c4.065,0.552,8.126,1.096,12.241,0.943
				c0.65-0.024,1.308-0.116,1.777,0.495c0.007,0.771,0.603,0.674,1.082,0.716c10.282,0.909,20.385,2.95,30.509,4.842
				c2.757,0.515,5.476,1.239,8.203,1.906c0.567,0.139,1.107,0.309,1.692,0.17c2.176-0.15,4.217,0.863,6.39,0.74
				c1.208,0.485,2.467,0.764,3.76,0.92c4.46,0.946,8.833,2.398,13.48,2.212c0.633-0.025,1.297,0.049,1.739,0.635
				c-0.767,0.159-1.535,0.318-2.512,0.52c1.548,0.716,3.07,0.888,4.504,1.338c4.395,1.378,8.706,3.02,13.181,4.147
				c0.968,0.244,0.951,0.311,1.305,1.797c-2.766-0.166-5.509-0.079-8.159-0.534c-11.019-1.895-22.15-3.027-33.162-4.965
				c-2.126-0.374-4.301-0.469-6.454-0.692c-1.345-0.541-2.531,0.375-3.814,0.418c-6.445-1.371-12.959-2.148-19.549-2.252
				c-1.277-0.196-2.508-0.651-3.816-0.678c-3.411-0.542-6.916-0.351-10.274-1.306c-0.988-0.595-2.108-0.43-3.176-0.522
				c-6.414-0.553-12.837-1.002-19.244-1.629c-12.45-1.219-24.918-2.341-37.147-5.165c-0.344-0.079-0.704-0.09-1.04-0.131
				c-0.253,0.629,0.24,0.835,0.51,1.102c23.317,23.09,47.894,44.741,74.026,64.604c3.505,2.664,7.213,5.063,10.831,7.579
				c0.522,0.363,1.001,0.883,1.75,0.609c1.346,0.983,2.698,1.958,4.124,2.826c1.541,0.862,1.542,2.321,1.474,3.807
				c-0.477,0.458-1.337-0.237-1.8,0.948c-0.312,0.798-1.918-0.102-2.952-0.145c-3.803-3.101-7.729-6.024-12.042-8.393
				c-0.673-0.118-1.277-0.396-1.83-0.787c-0.396-0.268-0.892-0.201-1.317-0.381c-3.358-3.006-7.348-5.101-11.025-7.646
				c-1.72-1.19-3.421-2.415-5.227-3.478c-1.257-0.687-2.146-1.952-3.623-2.296c-1.832-2.295-4.593-3.387-6.777-5.228
				c-0.545-0.46-1.178-0.816-1.618-1.397c-0.224-0.279-0.405-0.613-0.679-0.828c-10.237-8.042-19.52-17.162-29.218-25.814
				c-0.754-0.673-1.529-1.322-2.294-1.983c-0.055-0.187-0.177-0.298-0.368-0.335c-0.068-0.111-0.165-0.185-0.291-0.221
				c-0.354-0.076-0.659-0.235-0.893-0.517c-0.319-0.431-0.783-0.664-1.245-0.901c-0.411-0.48-0.924-0.707-1.56-0.647
				c-0.565-0.86-1.095-1.745-1.911-2.405c-1.266-1.507-2.95-2.599-4.145-4.175c-0.233-0.561-0.72-0.895-1.146-1.282
				c-11.856-10.757-24.198-20.913-37.264-30.176c-0.295-0.209-0.571-0.449-0.882-0.631c-9.236-5.401-18.025-11.533-27.504-16.55
				c-5.254-2.781-10.71-5.08-16.083-7.58c-1.899-0.884-3.735-1.905-5.623-2.815c-5.233-2.523-10.777-4.176-16.33-5.809
				c-0.511-0.15-1.196-0.047-1.493-0.698c7.239,0,14.478,0,21.718,0c3.766,1.078,6.959,3.49,10.719,4.596
				c1.083,0.318,2.134,0.722,3.107,0.904c-2.642-1.624-5.479-3.065-8.082-4.907c-0.174-0.123-0.18-0.375-0.097-0.593
				C237.617-1.857,242.395-1.857,247.173-1.857z"/>
			<path style="fill:#344D56;" d="M372.4,47.302c-0.65-0.119-1.275-0.072-1.915,0.135c-0.469,0.152-1.041,0.326-1.473,0.189
				c-2.307-0.728-4.732-0.102-7.054-0.698c-0.886-0.227-1.861-0.124-2.796-0.136c-0.635-0.008-1.154-0.121-1.239-0.878
				c0.15-2.626,2.132-4.158,3.679-5.868c4.33-4.785,9.376-8.786,14.438-12.759c8.584-6.737,17.065-13.617,26.198-19.615
				c4.229-2.777,8.483-5.515,12.675-8.348c0.793-0.536,1.69-0.776,2.525-1.181c5.068,0,10.135,0,15.202,0
				c-0.174,1.271-1.01,2.219-1.667,3.226c-5.372,8.234-10.87,16.389-17.787,23.439c-6.26,6.38-13.321,11.75-21.135,16.107
				c-5.675,3.165-11.806,5.025-18.146,6.27C373.415,47.282,372.902,47.266,372.4,47.302z"/>
			<path style="fill:#344D56;" d="M355.32,45.049c-0.46,0.663-0.721,1.428-1.917,0.961c-1.026-0.4-2.235-0.013-3.378-0.298
				c-0.967-0.241-1.632-0.669-2.066-1.525c-0.79-2.735-0.458-5.442,0.246-8.126c1.413-5.388,3.916-10.253,7.305-14.645
				c6.657-8.627,14.058-16.508,23.153-22.65c0.235-0.159,0.498-0.299,0.552-0.621c11.293,0,22.586,0,33.879,0
				c0.13,1.345-1.07,1.614-1.843,2.11c-7.906,5.077-15.839,10.113-23.355,15.765c-8.372,6.295-17.033,12.226-24.808,19.28
				c-2.516,2.283-4.606,4.978-6.357,7.917C356.339,43.875,356.194,44.751,355.32,45.049z"/>
			<path style="fill:#4C717E;" d="M135.544-1.857c-0.743,8.585-0.492,17.191-0.366,25.785c0.054,3.652,0.326,7.324,0.682,10.983
				c0.222,2.283,0.406,4.592,0.601,6.884c0.299,3.503,0.59,7.012,1.092,10.503c0.47,3.272,0.933,6.544,1.429,9.813
				c0.852,5.618,1.802,11.216,3.078,16.753c1.454,6.312,2.896,12.628,4.495,18.904c1.121,4.397,2.434,8.749,3.773,13.087
				c1.51,4.895,3.113,9.763,4.738,14.622c1.029,3.078,2.115,6.142,3.513,9.08c0.322,0.676,0.498,1.34,0.361,2.305
				c-1.933-1.687-2.767-3.909-3.869-5.909c-3.571-6.484-5.786-13.521-8.246-20.465c-3.33-9.4-5.754-19.045-8.063-28.721
				c-1.385-5.803-2.37-11.691-3.292-17.592c-0.554-3.548-1.17-7.099-1.55-10.66c-0.396-3.714-0.726-7.448-1.051-11.174
				c-0.621-7.127-0.768-14.254-0.838-21.399c-0.075-7.662,0.389-15.262,1.776-22.801C134.386-1.857,134.965-1.857,135.544-1.857z"/>
			<path style="fill:#4C717E;" d="M53.887-1.857c0.428,2.623,0.987,5.232,1.249,7.872c0.293,2.948,0.946,5.823,1.468,8.722
				c1.724,9.566,3.859,19.045,6.398,28.428c1.825,6.746,3.676,13.486,5.632,20.195c2.866,9.827,5.835,19.625,8.764,29.433
				c0.082,0.275,0.226,0.532,0.327,0.803c0.139,0.376,0.55,0.863-0.057,1.088c-0.54,0.2-0.639-0.423-0.857-0.765
				c-2.378-3.738-4.047-7.823-5.712-11.897c-2.182-5.337-4.312-10.696-6.015-16.217c-2.593-8.404-5.051-16.843-7.292-25.348
				c-1.339-5.083-2.624-10.184-3.613-15.337c-1.165-6.068-2.665-12.077-3.369-18.234c-0.334-2.924-0.84-5.829-1.268-8.743
				C50.991-1.857,52.439-1.857,53.887-1.857z"/>
			<path style="fill:#3E5C67;" d="M148.654,3.324c-2.198-1.727-4.396-3.454-6.594-5.181c1.014,0,2.027,0,3.041,0
				c0.724,0.3,1.448,0.724,2.172,0c1.737,0,3.475,0,5.212,0c2.824,2.231,5.98,3.964,8.976,5.935
				c7.524,4.948,15.376,9.384,22.8,14.487c1.101,0.757,2.118,1.106,3.383,0.835c-0.168,1.388-1.267,1.047-2.108,1.095
				c-2.856,0.162-3.605,1.3-2.656,4.032c0.367,1.056,0.93,2.146-0.017,3.21c-0.047-0.055-0.132-0.107-0.136-0.164
				c-0.162-2.697-2.01-4.043-4.052-5.4c-7.319-4.863-14.52-9.907-22.048-14.451c-1.047-0.632-2.122-1.218-3.184-1.825
				c-0.217-0.052-0.362-0.215-0.524-0.35l-0.024-0.014c-0.198-0.282-0.628-0.174-0.81-0.482l-0.006-0.004
				c-0.466-0.33-1.087-0.308-1.536-0.678C149.928,3.996,149.519,3.247,148.654,3.324z"/>
			<path style="fill:#4C717E;" d="M355.32,45.049c0.954-2.441,2.451-4.524,4.12-6.529c4.843-5.817,10.995-10.108,16.957-14.607
				c6.372-4.809,12.79-9.564,19.324-14.15c4.535-3.183,9.32-6.009,13.949-9.061c1.183-0.78,2.564-1.333,3.423-2.559
				c1.448,0,2.896,0,4.344,0c-3.85,2.921-7.921,5.526-11.997,8.099c-4.7,2.967-9.181,6.221-13.654,9.502
				c-6.503,4.769-12.726,9.896-19.086,14.847c-4.044,3.148-7.844,6.595-11.301,10.388c-1.356,1.487-2.564,3.117-3.475,4.936
				c-0.397,0.142-0.785,0.347-1.194,0.415C355.761,46.489,355.228,46.094,355.32,45.049z"/>
			<path style="fill:#344D56;" d="M0.461-1.857C1.016,0.866,2.1,3.467,2.356,6.255C2.49,7.714,2.539,9.18,2.619,10.643
				c0.027,0.498-0.04,1.015,0.376,1.407c0.709,0.775-0.079,1.823,0.479,2.625c0.258,5.413,0.443,10.828,0.006,16.24
				c-0.621,7.706-1.654,15.359-3.037,22.964c-0.11,0.602-0.035,1.351-0.851,1.598c0-18.75,0-37.499,0.003-56.248
				C-0.405-1.348-0.622-2.129,0.461-1.857z"/>
			<path style="fill:#37525B;" d="M4.805-1.857C4.782-0.589,5.345,0.54,5.769,1.67c1.928,5.132,3.642,10.331,5.198,15.586
				c0.449,1.517,1.132,2.964,1.623,4.47c2.856,8.761,5.069,17.703,7.401,26.611c1.33,5.08,2.704,10.148,4.086,15.214
				c0.173,0.634,0.385,1.235,0.144,1.98c-0.58-0.322-0.619-0.89-0.81-1.387c-2.403-6.263-4.023-12.768-5.798-19.216
				c-2.352-8.545-4.985-16.996-7.767-25.406c-1.288-3.895-2.486-7.82-3.777-11.714C5.276,5.413,4.378,3.054,3.542,0.673
				c-0.286-0.815-0.59-1.635-0.475-2.53C3.647-1.857,4.226-1.857,4.805-1.857z"/>
			<path style="fill:#37515B;" d="M232.839-1.857c2.458,1.763,5.297,2.902,7.727,4.715c0.403,0.3,0.844,0.527,1.099,1.006
				c-1.512,0.334-4.097-0.308-7.413-1.992c-2.372-1.205-4.878-2.163-7.06-3.728C229.075-1.857,230.957-1.857,232.839-1.857z"/>
			<path style="fill:#405F6A;" d="M28.694-1.857c0,1.882,0.001,3.763,0.002,5.645c-1.593-1.882-3.186-3.763-4.779-5.645
				C25.509-1.857,27.101-1.857,28.694-1.857z"/>
			<path style="fill:#344D56;" d="M182.863,27.736c0.197-1.191,0.004-2.385-0.622-3.343c-0.692-1.059-0.811-1.968-0.11-2.985
				c0.757-1.099,1.799-1.69,3.144-1.498c0.88,0.126,1.712,0.283,2.369-0.511c2.406-0.869,4.929-1.083,7.447-1.22
				c13.152-0.714,25.594,2.256,37.487,7.616c11.324,5.103,21.239,12.31,30.15,20.942c8.454,8.19,15.362,17.47,20.243,28.215
				c2.311,5.088,4.084,10.358,5.366,15.792c0.232,0.982,0.343,1.996,0.45,3.002c0.256,2.399-0.482,3.643-2.742,4.551
				c-1.483,0.596-3.043,0.938-4.638,1.061c-10.349,0.798-20.513-0.053-30.398-3.417c-16.451-5.599-30.952-14.41-42.987-26.944
				c-10.561-10.999-19.063-23.437-24.247-37.933C183.387,29.981,182.974,28.899,182.863,27.736z"/>
			<path style="fill:#344D56;" d="M311.8,63.685c1.914,0.829,3.165,2.401,4.434,3.954c0.274,0.712,0.14,1.421-0.003,2.135
				c-2.368,11.84-1.988,23.716-0.457,35.605c1.326,10.302,4.135,20.243,7.282,30.11c4.236,13.284,8.622,26.522,12.418,39.943
				c0.043,0.29,0.34-0.194,0.105-0.024c-0.073,0.053-0.132,0.014-0.168-0.118c-1.835-6.692-3.176-13.504-4.975-20.208
				c-2.943-10.966-6.019-21.896-9.078-32.828c-4.076-14.565-5.557-29.385-4.778-44.439c0.13-2.523-0.096-5.238,1.41-7.558
				c0.952-1.387,1.185,0.156,1.73,0.424c0.363,0.276,0.728,0.55,0.906,0.995c0.135,0.236,0.275,0.471,0.288,0.754
				c0.064,0.135,0.128,0.271,0.192,0.406c0.086,0.173,0.189,0.336,0.31,0.487c3.174,5.759,6.621,11.37,9.506,17.287
				c5.649,11.587,10.609,23.429,13.712,35.995c2.632,10.66,3.001,21.442,2.169,32.324c-0.409,5.355-1.33,10.611-2.795,15.773
				c-0.814,2.87-2.004,5.576-3.663,8.064c-0.36,0.539-0.739,1.076-1.179,1.549c-1.552,1.663-2.958,1.851-4.777,0.486
				c-1.268-0.952-2.434-2.051-3.58-3.151c-7.483-7.177-14.497-14.756-20.038-23.584c-9.005-14.348-13.001-29.962-12.09-46.892
				c0.437-8.109,1.161-16.158,3.222-24.03c1.763-6.733,4.296-13.185,7.43-19.398C310.046,66.33,310.781,64.919,311.8,63.685z"/>
			<path style="fill:#344D56;" d="M354.405,101.511c0.878-0.024,1.47,0.608,2.053,1.07c1.463,1.16,3.026,2.161,4.596,3.151
				c0.931,0.587,1.644,1.305,2.075,2.31c1.064,1.383,1.148,3.102,1.51,4.698c4.003,17.643,11.359,33.846,21.204,48.933
				c6.287,9.634,12.788,19.13,19.308,28.61c1.31,1.905,2.946,3.567,4.201,5.679c0.088,0.128,0.271-0.465,0.108-0.226
				c-0.02,0.029-0.066-0.004-0.143-0.096c-1.877-2.248-2.875-5.005-4.288-7.517c-5.606-9.968-11.483-19.767-17.699-29.365
				c-9.395-14.506-16.464-30.047-20.765-46.813c-0.054-0.401-0.111-0.803-0.158-1.206c-0.007-0.207,0.061-0.386,0.212-0.531
				c0.122-0.058,0.307-0.201,0.358-0.163c4.632,3.442,9.617,6.359,14.351,9.65c0.738,0.513,1.154,1.269,1.84,1.785
				c0.438-0.205,0.642,0.187,0.931,0.364c0.464,0.422,1.057,0.745,1.117,1.473c1.465,1.693,2.922,3.394,4.397,5.078
				c10.476,11.96,18.776,25.317,24.97,39.917c3.809,8.978,5.779,18.461,5.909,28.274c0.04,3.06-0.7,6.026-0.985,9.048
				c-0.21,2.229-1.804,2.99-4.063,2.499c-1.368-0.297-2.613-0.856-3.809-1.513c-19.116-10.49-33.695-25.718-45.299-43.913
				c-5.058-7.931-7.82-16.886-10.07-25.974c-2.061-8.321-3.163-16.763-2.986-25.343C353.347,108.071,353.52,104.745,354.405,101.511
				z"/>
			<path style="fill:#344D56;" d="M420.487,55.917c-0.397,0.135-0.844,0.462-1.184,0.373c-1.801-0.469-3.758-0.331-5.417-1.354
				c5.854-14.171,16.006-24.623,28.707-32.745c10.913-6.979,22.872-11.368,35.632-13.615c9.018-1.588,18.095-2.081,27.23-1.7
				c1.227,0.051,2.459,0.153,3.671,0.343c1.918,0.3,2.913,1.47,2.975,3.404c0.043,1.322-0.323,2.578-0.738,3.815
				c-2.408,7.168-6.234,13.51-11.329,19.069c-7.57,8.259-16.853,14.038-27.098,18.347c-10.015,4.212-20.503,6.519-31.3,7.496
				c-0.79,0.071-1.587,0.065-2.38,0.094c-0.43-0.027-0.866-0.114-1.289-0.073c-4.457,0.439-8.634-1.05-12.904-1.877
				c-0.52-0.101-1.161-0.162-1.53-0.697c0.365-1.079,1.386-1.424,2.229-1.941c11.13-6.822,22.903-12.389,34.962-17.297
				c12.097-4.923,23.667-10.821,34.864-17.495c2.475-1.475,4.774-3.203,6.585-5.07c-5.512,3.174-11.541,5.952-17.492,8.887
				c-14.791,7.297-30.393,12.801-45.037,20.424c-5.978,3.112-11.82,6.418-17.111,10.628
				C421.941,55.403,421.438,56.155,420.487,55.917z"/>
			<path style="fill:#344D56;" d="M384.425,58.954c1.173-0.866,2.566-0.588,3.733-0.321c2.193,0.502,4.418,0.3,6.619,0.685
				c3.224,0.565,6.545,0.58,9.654,1.784c0.688-0.377,1.259-0.205,1.745,0.37c11.426,4.038,22.289,9.225,32.477,15.812
				c7.783,5.032,14.51,11.215,20.38,18.366c2.145,2.613,3.612,5.566,4.664,8.748c0.494,1.494,0.094,2.454-1.277,3.283
				c-0.633,0.383-1.331,0.565-2.042,0.688c-10.344,1.786-20.752,2.089-31.097,0.408c-12.138-1.972-23.044-6.88-32.568-14.801
				c-9.935-8.263-17.911-18.025-23.424-29.747c-0.921-1.958-1.874-3.906-2.377-6.029c-0.174-0.309-0.083-0.73-0.41-0.975
				c0,0,0.004,0.009,0.003,0.009c0.169-0.127,0.356-0.381,0.506-0.361c2.968,0.407,5.933,0.813,8.939,0.829
				c0.333,0.002,0.666,0.248,0.998,0.38c2.424,2.108,3.917,4.978,6.03,7.352c6.083,6.835,12.808,12.929,20.114,18.439
				c12.65,9.54,26.984,15.315,42.163,19.276c1.801,0.47,3.639,0.779,5.907,0.907c-4.128-2.037-8.108-3.368-12.054-4.755
				c-12.206-4.293-23.918-9.556-34.38-17.29c-7.395-5.467-14.572-11.193-20.55-18.262c-0.842-0.995-1.842-1.843-2.716-2.807
				C384.954,60.382,384.173,59.927,384.425,58.954z"/>
			<path style="fill:#344D56;" d="M397.863,131.117c0.262-0.441,0.668-0.551,1.104-0.366c0.611,0.259,1.221,0.382,1.961,0.229
				c-0.017-0.629-1.037-0.185-0.793-1.116c0.76-0.53,1.636,0.601,2.538,0.316c0.9-0.813,1.917-0.407,2.895-0.256
				c21.051,3.267,41.771,8.008,62.209,14.004c2.958,0.868,5.936,1.676,9.315,2.03c-7.288-3.646-14.723-6.031-22.24-8.182
				c-16.518-4.726-33.314-8.078-50.375-10.106c-1.215-0.144-2.452-0.281-3.533-0.953c-1.537-0.718-3.184-1.293-3.928-3.037
				c1.133-1.591,2.919-2.051,4.628-2.557c6.139-1.817,12.395-2.782,18.825-2.636c9.889,0.224,19.634,1.263,28.961,4.801
				c13.146,4.986,24.404,12.805,34.132,22.892c1.981,2.054,1.647,3.905-1.012,5.079c-3.254,1.437-6.693,2.321-10.213,2.823
				c-14.261,2.033-28.267,0.692-42.061-3.275c-7.255-2.087-14.263-4.757-20.598-8.961c-3.63-2.41-6.942-5.206-9.942-8.365
				C399.045,132.753,398.29,132.062,397.863,131.117z"/>
			<path style="fill:#56808F;" d="M172.885,203.144c2.376-4.695,6.616-6.838,11.435-7.676c10.75-1.87,18.477,5.872,20.422,12.91
				c2.056,7.438-0.705,13.821-7.238,17.996c-6.493,4.15-15.087,3.085-19.944-0.74c-0.278-0.219-0.502-0.508-0.751-0.764
				c-0.16-0.133-0.279-0.316-0.48-0.4l0.026,0.026c-2.927-1.115-4.091-3.795-5.085-6.335c-1.615-4.129-1.626-8.426-0.133-12.673
				C171.482,204.504,171.91,203.634,172.885,203.144z"/>
			<path style="fill:#739CAB;" d="M87.345,95.459c0.682-4.953,1.405-9.902,2.021-14.863c0.202-1.631,0.159-3.297,0.161-4.946
				c0.002-1.512,0.076-3.008,0.443-4.48c0.65-0.968,1.627-1.504,2.633-2.009c8.8-4.417,18.756,1.584,22.19,10.072
				c0.896,2.215,1.346,4.616,1.242,7.006c-0.156,3.585-1.619,6.693-3.525,9.639c-1.334,1.628-3.023,2.822-4.785,3.928
				c-1.887,0.401-3.67,1.149-5.609,1.433c-4.98,0.729-9.183-0.77-12.854-4.063C88.623,96.603,88.124,95.875,87.345,95.459z"/>
			<path style="fill:#739CAB;" d="M132.226,190.475c-7.796-8.062-0.76-21.754,9.581-24.2c7.51-1.777,14.611,2.076,17.576,9.465
				c2.668,6.65,0.203,16.171-7.329,19.254c-0.348,0.143-0.608,0.379-0.79,0.705c-1.207,0.17-2.41,0.424-3.623,0.493
				c-4.433,0.254-9.674-1.408-13.316-3.942C133.532,191.698,132.834,191.104,132.226,190.475z"/>
			<path style="fill:#779FAE;" d="M43.052,143.33c0.001-0.047,0.002-0.094,0.002-0.141c0.07-6.237-3.311-10.994-8.351-14.257
				c-2.044-1.323-4.032-1.928-6.475-1.797c-9.286,0.499-14.117,5.781-15.159,14.433c-0.577,4.792,1.442,8.7,4.599,12.14
				c2.522,2.749,5.805,4.416,9.574,4.474c3.262,0.05,6.473-1.009,9.317-2.609C40.745,153.218,42.957,148.005,43.052,143.33z"/>
			<path style="fill:#779FAE;" d="M102.959,212.522c0.657-0.232,1.291-0.41,1.856-0.521c0.759-0.149,1.535-0.211,2.308-0.185
				c0.582,0.02,1.161,0.09,1.734,0.193c6.091,1.094,9.811,5.541,12.327,10.848c0.361,0.971,0.609,1.963,0.61,3.007
				c0.178,4.105-0.236,8.055-3.035,11.36c-2.649,3.128-6.128,4.641-10.113,5.133c-0.792,0.098-1.585,0.032-2.237-0.536
				c-2.802-0.954-5.491-2.111-7.981-3.761c-8.179-5.421-7.997-16.565-1.32-22.138c0.151-0.126,0.395-0.139,0.595-0.205
				c0.503,0.967-0.746,1.498-0.559,2.461c0.833-0.214,1.259-0.96,1.924-1.384c-0.314-0.615-1.082-0.536-1.343-1.091
				C98.858,214.38,101.008,213.212,102.959,212.522z"/>
			<path style="fill:#598595;" d="M106.41,241.821c3.714,0.106,7.044-0.869,10.031-3.182c3.134-2.427,4.459-5.672,4.759-9.461
				c0.091-1.145,0.026-2.302,0.033-3.453c0.217-0.021,0.521,0.013,0.545,0.198c0.361,2.812,2.476,2.772,4.542,2.82
				c0.676,0.167,1.364,0.313,1.808,0.929c3.957,1.715,6.692,4.675,8.628,8.454c0.126,0.246,0.333,0.45,0.502,0.673
				c0.886,0.661,1.062,1.561,0.874,2.585c0.251,3.099-0.206,6.131-0.866,9.143c-0.59,0.365-0.801,1.012-1.135,1.559
				c-4.24,6.944-12.957,8.523-18.642,6.188c-5.459-2.243-9.216-6.117-10.776-11.936C106.314,244.846,106.244,243.345,106.41,241.821
				z"/>
			<path style="fill:#507786;" d="M51.296,184.061c0.914-0.651,1.842-1.294,1.725-2.623c0.605-0.592,1.487-0.062,2.123-0.525
				l-0.014,0.025c0.172-0.077,0.33-0.176,0.474-0.297c7.707-5.035,19.289-0.464,21.298,9.861c1.013,5.203-0.563,9.721-4.367,13.439
				c-1.708,1.669-3.786,2.594-6.073,3.185c-0.927,0.24-2.075,0.153-2.63,1.237c-1.758,0.401-3.485,0.054-5.216-0.209
				c-2.906-1.446-5.622-3.109-7.577-5.831c-1.147-1.597-2.152-3.169-1.886-5.24c-0.833-2.852-0.827-5.713-0.092-8.582
				c-0.169-0.338-0.627-0.537-0.488-1.022C49.465,186.327,50.005,184.894,51.296,184.061z"/>
			<path style="fill:#6190A0;" d="M151.18,262.907c0.172-0.153,0.352-0.295,0.555-0.403c0.32-0.172,0.681-0.252,1.038-0.321
				c7.358-1.421,13.287,0.888,17.479,6.999c0.847,1.676,1.712,3.345,1.956,5.247c1.613,7.645-4.856,15.686-12.654,15.733
				c-0.433,0.003-0.866,0.008-1.298,0.013c-4.958-0.264-8.811-2.626-11.961-6.316c0.11-0.792-0.428-1.342-0.751-1.966
				c-1.684-3.26-2.2-7.072-1.053-10.594c1.159-3.556,3.802-5.635,6.403-8.125C150.988,263.084,151.083,262.994,151.18,262.907z"/>
			<path style="fill:#4D7381;" d="M172.923,266.974c-3.007-2.771-6.072-5.481-9.005-8.327c-2.201-2.135-4.501-4.163-6.732-6.265
				c-1.295-1.221-2.581-2.453-3.873-3.678c-0.459-0.435-2.07-1.494-2.21-2.08c-0.15-0.625,0.401-1.099,0.663-1.755
				c1.454-3.64,4.118-6.065,7.662-7.54c9.599-3.995,21.257,2.749,22.604,13.042c0.905,6.913-1.82,12.124-8.008,15.324
				C173.49,265.971,172.672,266.016,172.923,266.974z"/>
			<path style="fill:#6492A2;" d="M172.457,202.286c-2.18,3.696-2.547,7.669-1.917,11.837c0.468,3.094,2.013,5.633,3.865,8.033
				c0.428,0.555,1.011,0.991,1.522,1.482c-0.68,0.174-1.038,0.75-1.479,1.209c-4.808,5.01-12.922,5.403-18.175,1.602
				c-0.966-0.699-2.236-0.929-2.954-1.971c-0.757-2.227-2.772-3.761-3.359-6.083c-0.63-2.491-0.522-5.215,0.192-7.672
				c0.386-1.327,0.958-2.595,1.656-3.786c0.52-0.888,1.169-2.358,1.803-3.096c0.202-0.236,0.486-0.383,0.758-0.533
				c2.528-1.388,4.623-3.106,7.576-3.454c3.167-0.373,6.414,0.292,9.096,2.049C171.479,202.189,171.92,202.397,172.457,202.286z"/>
			<path style="fill:#5B8898;" d="M158.121,289.601c1.301-0.025,2.637,0.13,3.897-0.112c2.409-0.464,4.462-1.795,6.036-3.606
				c1.703-1.959,2.883-4.273,3.591-6.83c0.443-1.601,0.464-3.113-0.048-4.663c1.846-0.885,3.683-0.618,5.52,0.034
				c0.962,0.478,1.92,0.965,2.685,1.747c1.128,1.31,2.823,1.886,3.986,3.191c2.212,2.481,4.182,5.06,4.811,8.432
				c0.035,0.187,0.234,0.344,0.355,0.506c0.012,1.019,0.025,2.038,0.037,3.057c-0.521,1.957-1.085,3.886-2.304,5.566
				c-3.432,4.731-9.832,6.867-15.44,5.305c-1.003-0.279-2.001-0.673-3.041-0.648c-0.309,0.007-0.626,0.051-0.924-0.035
				c-0.314-0.091-0.569-0.317-0.812-0.536c-2.416-2.18-5.977-5.125-5.977-8.75C160.294,290.54,158.409,290.898,158.121,289.601z"/>
			<path style="fill:#5F8E9F;" d="M49.153,197.082c0.592,2.896,2.23,5.157,4.302,7.172c0.988,0.961,2.115,1.709,3.338,2.303
				c0.722,0.35,1.32,0.827,1.888,1.367c0.101,0.029,0.202,0.058,0.304,0.086c0.182,0.108,0.338,0.246,0.473,0.408
				c1.234,1.783,2.083,3.806,3.439,5.518c0.316,0.399,0.525,0.886,0.113,1.382c-0.553-0.37-0.862-0.236-1.084,0.408
				c-0.696,2.023-1.856,3.749-3.472,5.157c-1.667,1.452-3.554,2.447-5.747,2.874c-3.015,0.586-5.957,0.802-8.905-0.483
				c-7.681-3.349-10.339-12.564-5.53-19.433c2.275-3.249,5.366-5.194,9.299-5.779C48.242,197.962,49.116,198.198,49.153,197.082z"/>
			<path style="fill:#517988;" d="M107.744,69.807c-0.808,0.373-1.525,0.001-2.26-0.268c-4.351-1.586-8.676-1.632-12.963,0.243
				c-1.192-1.242-2.026-2.698-2.573-4.324c-0.346-1.03-0.047-2.754-0.114-3.863c-0.087-1.415-0.206-2.828-0.285-4.244
				c-0.083-1.494-0.118-2.976,0.063-4.461c0.201-1.651-0.075-3.081-0.415-4.688c-0.071-0.335-0.142-0.685-0.054-1.017
				c0.315-1.192,2.161-1.533,3.142-1.88c1.545-0.546,3.122-1.033,4.755-1.229c8.089-0.968,15.262,7.579,15.564,15.189
				C112.774,63.59,111.153,67.118,107.744,69.807z"/>
			<path style="fill:#608FA0;" d="M48.696,187.499c0.122,0.333,0.244,0.667,0.366,1.001c-0.526-0.243-0.971-0.028-1.428,0.224
				c-5.077,2.808-13.092,1.103-16.903-3.784c-1.507-1.933-3.053-3.84-3.877-6.228c-0.483-1.399-0.127-2.895-0.695-4.254
				c0.718-1.387,0.986-2.897,1.217-4.418c0.55-0.35,0.947-0.827,1.301-1.378c2.631-4.1,6.516-6.16,11.236-6.837
				c0.838,0.249,0.968,1.003,1.175,1.684c2.245,7.395,4.828,14.676,7.456,21.941C48.78,186.107,49.208,186.775,48.696,187.499z"/>
			<path style="fill:#4B707D;" d="M158.121,289.601c0.051,0.051,0.103,0.148,0.153,0.147c2.087-0.041,2.549,1.336,2.891,3.048
				c0.644,3.23,2.806,5.46,5.398,7.248c0.805,0.555,1.153,0.965,0.735,1.853c-4.46,3.504-9.285,4.476-14.534,1.963
				c-0.97-0.464-2.157-0.358-2.956-1.204c0.036-1.401-1.308-2.595-2.97-2.637c-0.89-2.781-2.593-5.269-2.826-8.298
				c-0.227-2.939,0.273-5.603,2.284-7.86c1.037,0.104,1.537,0.969,2.232,1.563C151.297,287.793,154.348,289.529,158.121,289.601z"/>
			<path style="fill:#3E5C67;" d="M48.696,187.499c-1.844-5.139-3.734-10.262-5.516-15.422c-1.17-3.389-2.184-6.833-3.268-10.252
				c0.008-0.248,0.017-0.497,0.025-0.745c-0.3-0.402,0.015-0.973-0.37-1.352c-0.298-1.158-0.596-2.317-0.894-3.475
				c-0.461-0.492,0.101-1.256-0.458-1.722l0.001,0.007c1.023-1.315,2.047-2.63,3.07-3.945c1.422,1.697,1.451,3.897,1.996,5.878
				c2.393,8.695,5.313,17.246,7.167,26.088c0.12,0.573,0.341,1.105,0.825,1.483c0,0,0.021,0.02,0.021,0.02
				C50.597,185.334,50.082,186.745,48.696,187.499z"/>
			<path style="fill:#3F5D68;" d="M63.011,215.318c-1.139-1.93-2.269-3.865-3.427-5.785c-0.221-0.367-0.47-0.706-0.518-1.145
				c-0.119-0.164-0.249-0.318-0.392-0.461c0,0,0.007-0.003,0.007-0.003c1.728,0.016,3.482-0.266,5.151,0.439
				c2.76,5.241,5.36,10.566,8.387,15.664c0.037,0.062,0.068,0.128,0.1,0.193c0.354,0.724,0.82,1.561-0.017,2.142
				c-0.742,0.515-1.338-0.192-1.858-0.685c-1.849-1.755-3.298-3.836-4.715-5.931C64.76,218.311,63.912,216.796,63.011,215.318z"/>
			<path style="fill:#618FA0;" d="M55.144,180.912c-0.569,0.734-1.281,0.891-2.123,0.525c-1.729-5.001-3.012-10.127-4.26-15.262
				c-0.132-0.542-0.042-1.138-0.055-1.709c2.133,1.011,3.371,2.899,4.489,4.817c1.88,3.227,2.486,6.739,1.857,10.44
				C54.982,180.134,54.703,180.547,55.144,180.912z"/>
			<path style="fill:#415860;" d="M150.387,219.252c1.54,1.506,2.34,3.528,3.632,5.208c0.271,0.353,0.074,0.662-0.273,0.874
				c-1.09-0.817-2.538-1.089-3.411-2.236c-0.383-1.263-0.367-2.527-0.01-3.791L150.387,219.252z"/>
			<path style="fill:#3C555D;" d="M146.836,300.018c0.326-1.428,0.402-1.485,1.261-0.68c1.008,0.946,1.96,1.953,3.129,3.127
				c-0.731,0.098-1.075,0.144-1.419,0.19c-0.636-0.263-1.278-0.512-1.905-0.793C147.11,301.509,146.757,300.884,146.836,300.018z"/>
			<path style="fill:#44585F;" d="M27.375,170.039c0.11,0.087,0.272,0.152,0.323,0.266c0.401,0.907-0.588,3.546-1.54,4.153
				c-0.142-0.328-0.302-0.649-0.424-0.984C24.893,171.157,24.918,171.108,27.375,170.039z"/>
			<path style="fill:#374E56;" d="M107.724,99.806c0.012-0.374,0.121-0.687,0.465-0.903c1.279-0.801,2.457-1.725,3.521-2.802
				c0.168-0.171,0.527-0.153,0.798-0.222c0.034,0.537-0.326,0.935-0.487,1.402c-0.522,1.514-1.465,2.416-3.162,2.342
				c-0.197-0.009-0.401,0.141-0.603,0.217c-0.185,0.091-0.362,0.074-0.533-0.036L107.724,99.806z"/>
			<path style="fill:#3E5C67;" d="M370.502,57.226c0.422,0.205,0.472,0.566,0.41,0.975
				C370.583,57.957,370.496,57.611,370.502,57.226z"/>
			<path style="fill:#5B8898;" d="M189.28,291.394c0.271-0.03,0.459,0.087,0.577,0.327
				C189.59,291.745,189.398,291.636,189.28,291.394z"/>
			<path style="fill:#618FA0;" d="M55.604,180.64c-0.086,0.214-0.24,0.319-0.474,0.297C55.197,180.692,55.372,180.621,55.604,180.64
				z"/>
			<path style="fill:#598595;" d="M137.258,250.517c0.258,0.005,0.411,0.14,0.475,0.384
				C137.492,250.876,137.316,250.77,137.258,250.517z"/>
			<path style="fill:#6492A2;" d="M176.329,224.469c0.241,0.036,0.398,0.173,0.48,0.4
				C176.568,224.834,176.403,224.706,176.329,224.469z"/>
			<path style="fill:#3F5E69;" d="M89.948,65.458c1.001,1.356,2.226,2.579,2.573,4.325c-0.907,0.357-1.579,1.148-2.551,1.386
				C89.963,69.266,89.955,67.362,89.948,65.458z"/>
			<path style="fill:#37525B;" d="M49.279,111.076c-0.791-1.294-1.511-2.348-2.106-3.469c-1.963-3.702-3.823-7.46-5.825-11.14
				c-4.284-7.874-7.899-16.055-11.062-24.426c-3.185-8.43-6.282-16.899-8.605-25.623c-0.501-1.88-1.212-3.695-1.743-5.572
				c-1.784-6.304-3.691-12.573-5.518-18.864c-0.209-0.721-0.801-1.437-0.21-2.363c0.876,0.26,1.076,1.094,1.295,1.76
				c1.392,4.242,2.715,8.507,4.064,12.763c0.565,1.782,1.094,3.576,1.714,5.338c1.604,4.558,2.664,9.273,4.055,13.889
				c1.204,3.997,2.632,7.934,4.139,11.829c1.016,2.627,1.688,5.357,2.706,7.979c1.958,5.045,3.962,10.066,6.316,14.942
				c1.504,3.114,2.814,6.336,4.518,9.335c2.106,3.707,3.71,7.658,5.809,11.361C49.152,109.391,49.698,109.98,49.279,111.076z"/>
			<path style="fill:#37525B;" d="M69.64,155.92c-1.608-1.591-2.617-3.578-3.68-5.522c-3.912-7.155-7.577-14.439-11.564-21.559
				c-2.354-4.204-4.471-8.572-6.653-12.883c-3.067-6.059-6.072-12.152-9.183-18.19c-0.312-0.606-0.832-1.183-0.64-2.046
				C40.063,97.801,68.772,152.058,69.64,155.92z"/>
			<path style="fill:#37525B;" d="M108.98,211.902c-0.412-0.026-0.823-0.051-1.235-0.077c-3.015-3.664-6.051-7.312-9.035-11.001
				c-1.129-1.396-2.156-2.876-3.201-4.339c-4.098-5.742-8.229-11.462-12.253-17.255c-1.683-2.423-3.139-5.004-4.68-7.524
				c-0.214-0.349-0.51-0.734-0.129-1.301c1.131,0.591,1.656,1.746,2.282,2.697c2.692,4.09,5.695,7.951,8.533,11.932
				c1.922,2.696,3.868,5.374,5.849,8.024c3.874,5.184,7.798,10.33,11.747,15.458c0.699,0.908,1.609,1.65,2.194,2.665
				C109.218,211.467,109.287,211.689,108.98,211.902z"/>
			<path style="fill:#37525C;" d="M56.019,122.541c1.273,1.037,2.024,2.305,2.771,3.571c2.746,4.654,5.465,9.324,8.229,13.968
				c3.611,6.067,7.243,12.122,10.892,18.166c1.229,2.035,2.647,3.944,4.285,5.672c3.98,4.198,8.195,8.122,13.177,11.138
				c0.243,0.147,0.488,0.325,0.483,0.688c-0.437,0.441-0.79,0.004-1.084-0.19c-4.03-2.669-8.017-5.393-11.279-9.026
				c-4.528-5.042-8.84-10.212-12.028-16.276c-2.478-4.714-5.369-9.212-8.056-13.817c-2.361-4.045-4.7-8.103-7.036-12.164
				C56.102,123.802,55.711,123.327,56.019,122.541z"/>
			<path style="fill:#37525C;" d="M128.129,229.672c-0.617,0.031-1.175-0.158-1.706-0.45c-2.558-1.592-4.189-3.996-5.703-6.503
				c-1.411-2.576-2.862-5.123-5.108-7.099c-0.748-0.658-1.488-1.326-2.232-1.989c-2.69-3.365-5.487-6.651-8.036-10.119
				c-2.004-2.726-4.179-5.312-6.178-8.033c-0.651-0.886-1.457-1.594-2.155-2.415c-0.452-0.532-1.178-0.865-1.277-1.669
				c0.476-0.526,0.793-0.095,1.067,0.184c2.323,2.361,4.73,4.621,6.702,7.333c2.407,3.309,5.085,6.422,7.657,9.61
				c2.978,3.691,5.887,7.44,8.977,11.034c2.485,2.89,4.731,6,7.576,8.575c0.37,0.335,0.773,0.698,0.976,1.134
				C128.847,229.605,128.386,229.615,128.129,229.672z"/>
			<path style="fill:#37525B;" d="M38.688,131.92c-0.401-0.175-0.696-0.458-0.875-0.859c-0.225-2.647-0.752-5.254-1.003-7.903
				c-0.21-2.208-0.496-4.415-0.744-6.624c-0.295-2.638-0.656-5.269-1.018-7.899c-0.362-2.628-0.804-5.246-1.13-7.878
				c-0.263-2.126-1.008-4.18-0.972-6.533c1.035,0.715,1.145,1.782,1.32,2.672c0.94,4.788,1.885,9.58,2.607,14.404
				c0.615,4.114,0.737,8.307,1.458,12.397c0.39,2.213-0.028,4.478,0.724,6.636C39.234,130.849,39.251,131.494,38.688,131.92z"/>
			<path style="fill:#37525C;" d="M51.274,184.041c-1.016,0.492-1.156-0.388-1.219-0.937c-0.166-1.446-0.594-2.816-0.983-4.201
				c-2.572-9.149-5.144-18.297-7.706-27.449c-0.076-0.273-0.055-0.574-0.079-0.862c0.014-0.346,0.102-0.658,0.407-0.867
				c0.296-0.222,0.234-0.622,0.441-0.888c0,0-0.008-0.019-0.008-0.02c0.719,2.379,1.602,4.723,2.108,7.147
				c0.425,2.038,0.976,4.044,1.541,6.027c1.881,6.605,3.546,13.261,5.068,19.955C51.001,182.64,51.388,183.29,51.274,184.041z"/>
			<path style="fill:#37525B;" d="M132.151,190.537c0.366,0.196,0.633,0.485,0.812,0.857c-1.611,0.15-3.055-0.605-4.42-1.174
				c-2.797-1.165-5.733-1.918-8.507-3.137c-3.893-1.711-7.844-3.286-11.759-4.947c-2.182-0.926-4.454-1.641-6.507-2.876
				c-0.613-0.369-1.199-0.716-1.667-1.195c0.305-0.733,0.746-0.461,1.12-0.306c6.925,2.868,13.838,5.767,20.774,8.608
				c2.061,0.844,4.17,1.584,6.291,2.265C129.683,189.08,130.908,189.813,132.151,190.537z"/>
			<path style="fill:#38535D;" d="M179.801,276.17c-0.948-0.26-1.814-0.681-2.565-1.324c-2.888-1.333-5.163-3.465-7.386-5.665
				c-2.038-3.156-4.962-5.256-8.251-6.919c-0.689-1.123-1.674-1.932-2.714-2.721c-1.1-0.835-2.247-1.682-2.886-3.239
				c1.209,0.032,1.582,0.947,2.233,1.405c3.586,2.521,6.794,5.496,10.085,8.376c2.749,2.405,5.59,4.711,8.47,6.959
				c1.074,0.839,1.895,1.973,3.139,2.609C180.124,275.751,179.995,276.029,179.801,276.17z"/>
			<path style="fill:#37525C;" d="M138.134,241.384c-0.603-0.756-0.565-1.729-0.874-2.585c1.052-0.392,1.517,0.404,2.051,1.03
				c2.951,3.46,6.144,6.673,9.63,9.599c1.978,1.66,3.573,3.721,5.514,5.464c-1.217,0.021-1.978-0.863-2.734-1.525
				c-2.923-2.558-5.829-5.139-8.744-7.704C141.363,244.242,139.915,242.617,138.134,241.384z"/>
			<path style="fill:#37535C;" d="M149.081,258.077c-3.715-2.087-6.129-5.695-9.534-8.162c-0.509-0.368-0.885-0.932-1.276-1.442
				c-0.099-0.129-0.015-0.397-0.015-0.847C142.288,250.828,145.77,254.347,149.081,258.077z"/>
			<path style="fill:#37535C;" d="M35.497,128.061c-1.137-4.624-1.294-9.31-1.802-14.328c1.601,1.566,0.888,3.325,1.275,4.804
				c0.412,1.574,0.7,3.257,0.605,4.866C35.483,124.971,36.477,126.54,35.497,128.061z"/>
			<path style="fill:#38535D;" d="M188.955,288.308c0.021-0.285,0.042-0.569,0.084-1.145c2.259,1.337,4.405,2.546,6.298,4.181
				c-2.329-0.624-4.304-1.944-6.384-3.045C188.952,288.298,188.955,288.308,188.955,288.308z"/>
			<path style="fill:#4C717E;" d="M367.041,111.519c0.074,1.464,0.678,2.803,1.079,4.176c3.146,10.777,7.325,21.148,12.661,31.028
				c3.053,5.652,6.484,11.09,10.006,16.46c3.842,5.858,7.306,11.94,10.872,17.962c2.576,4.351,5.075,8.746,7.295,13.293
				c0.305,0.624,0.577,1.264,0.748,1.965c-1.753-1.502-3.146-3.285-4.486-5.109c-4.06-5.53-7.677-11.361-11.543-17.023
				c-2.848-4.171-5.723-8.327-8.462-12.57c-6.714-10.4-12.277-21.366-16.48-33.042c-2.279-6.33-3.819-12.839-5.498-19.322
				c-0.107-0.413-0.072-0.862-0.103-1.295c0.736-0.463,1.148,0.157,1.602,0.517c0.654,0.518,1.26,1.096,1.887,1.648
				c0.003,0.143,0.007,0.286,0.013,0.429C366.881,110.878,366.78,111.282,367.041,111.519z"/>
			<path style="fill:#4C717E;" d="M317.989,70.257c-0.238,2.071-0.437,4.147-0.736,6.208c-0.105,0.723-0.138,1.437-0.14,2.157
				c-0.012,4.633-0.024,9.265-0.012,13.898c0.012,4.841,0.803,9.599,1.571,14.358c1.977,12.271,5.829,24.068,9.108,36.009
				c2.899,10.556,5.785,21.115,7.885,31.869c0.096,0.493,0.221,0.992-0.021,1.48c-0.352-0.034-0.467-0.319-0.547-0.571
				c-1.587-5.021-3.157-10.048-4.741-15.07c-3.473-11.01-6.998-22.004-10.41-33.033c-2.002-6.472-3.395-13.101-4.53-19.776
				c-1.57-9.227-1.632-18.548-1.267-27.853c0.163-4.137,0.667-8.32,2.086-12.295C317.203,68.255,318.079,68.932,317.989,70.257z"/>
			<path style="fill:#4C717E;" d="M420.487,55.917c5.763-4.883,12.215-8.679,18.924-12.089c8.633-4.389,17.475-8.303,26.437-11.969
				c4.608-1.885,9.126-3.999,13.629-6.127c5.751-2.718,11.443-5.56,17.166-8.337c2.083-1.01,4.102-2.127,6.027-3.415
				c0.279-0.187,0.573-0.438,1.133-0.246c-0.944,1.591-2.307,2.723-3.655,3.837c-2.288,1.891-4.861,3.373-7.444,4.807
				c-5.493,3.049-10.883,6.284-16.567,8.991c-5.087,2.423-10.294,4.559-15.483,6.741c-2.461,1.035-4.934,2.044-7.364,3.147
				c-6.123,2.781-12.096,5.873-18.145,8.807c-4.045,1.961-7.719,4.528-11.612,6.733C422.376,56.991,421.247,57.092,420.487,55.917z"
				/>
			<path style="fill:#4C717E;" d="M384.425,58.954c4.138,4.316,7.996,8.877,12.516,12.853c5.591,4.919,11.455,9.422,17.655,13.522
				c6.226,4.117,12.925,7.271,19.816,10.09c6.076,2.485,12.346,4.44,18.408,6.955c1.189,0.493,2.371,0.983,3.754,1.987
				c-1.44,0.323-2.538,0.253-3.625,0.09c-2.494-0.373-4.931-1.018-7.344-1.727c-8.314-2.444-16.507-5.22-24.223-9.23
				c-6.16-3.201-11.857-7.127-17.392-11.294c-5.844-4.4-11.086-9.472-16.042-14.817c-2.633-2.84-5.143-5.842-7.001-9.299
				C382.193,58.033,383.433,58,384.425,58.954z"/>
			<path style="fill:#4C717E;" d="M400.944,126.719c3.106,0.026,6.158,0.625,9.218,1.023c4.056,0.527,8.102,1.18,12.129,1.954
				c4.662,0.896,9.316,1.833,13.971,2.763c7.425,1.483,14.72,3.488,21.965,5.647c5.948,1.773,11.821,3.803,17.457,6.445
				c0.97,0.455,1.885,1.006,2.894,1.952c-1.867,0.483-3.464-0.09-4.952-0.464c-6.149-1.542-12.253-3.261-18.369-4.934
				c-8.476-2.32-16.985-4.493-25.619-6.154c-5.72-1.1-11.424-2.289-17.164-3.272c-3.255-0.557-6.49-1.293-9.801-1.498
				c-0.147-0.151-0.451-0.364-0.419-0.444C402.829,128.279,401.42,127.702,400.944,126.719z"/>
			<path style="fill:#37515B;" d="M378.109,52.578c-3.431-0.265-6.805-0.123-10.176-0.131c-5.257-0.012-10.493-0.321-15.724-0.845
				c-4.159-0.417-8.338-0.65-12.521-0.46c-6.158,0.279-12.198-0.624-18.198-1.826c-5.153-1.032-10.196-2.496-15.179-4.174
				c-1.452-0.489-2.755-1.258-4.116-1.92c-0.312-0.152-0.655-0.406-0.494-0.84c0.162-0.435,0.611-0.417,0.922-0.312
				c2.601,0.881,5.353,1.026,8.002,1.707c3.331,0.857,6.728,1.458,10.104,2.137c6.327,1.273,12.743,2.033,19.067,3.363
				c3.424,0.72,6.962,1.037,10.499,0.992c1.663-0.021,3.326,0.019,4.988-0.008c4.973-0.082,9.913,0.296,14.861,0.794
				c2.504,0.252,5.007,0.397,7.464,0.973C377.819,52.077,378.021,52.124,378.109,52.578z"/>
			<path style="fill:#37515B;" d="M298.702,45.554c-2.49-1.321-4.281-3.001-6.186-4.505c-4.685-3.699-9.493-7.23-14.3-10.762
				c-3.593-2.64-7.2-5.263-10.866-7.801c-3.668-2.539-7.425-4.95-11.124-7.444c-1.729-1.166-3.489-2.304-4.914-3.861
				c-0.236-0.258-0.581-0.525-0.3-0.915c0.237-0.328,0.593-0.315,0.971-0.17c1.075,0.412,2.245,0.652,3.227,1.22
				c2.742,1.583,5.476,3.2,8.09,4.983c4.036,2.753,8.047,5.553,11.927,8.519c5.366,4.102,11.054,7.824,15.639,12.882
				c1.989,2.194,4.532,3.802,6.473,6.051C297.753,44.233,298.351,44.563,298.702,45.554z"/>
			<path style="fill:#37525C;" d="M330.884,74.78c7.552,5.59,14.074,12.354,21.311,18.325c-0.494,0.584-0.879,0.13-1.13-0.07
				c-4.102-3.271-8.306-6.407-12.262-9.873c-1.942-1.702-3.635-3.695-5.824-5.139C331.907,77.315,331.165,76.208,330.884,74.78z"/>
			<path style="fill:#37525C;" d="M315.8,60.69c-0.406-0.134-0.896-0.164-1.205-0.417c-3.054-2.494-6.489-4.528-9.125-7.529
				c-0.291-0.332-0.573-0.654-0.362-1.437c2.258,1.069,3.776,2.964,5.63,4.41C312.624,57.19,314.278,58.865,315.8,60.69L315.8,60.69
				z"/>
			<path style="fill:#37525C;" d="M315.8,60.69c0.266,0.027,0.557,0.021,0.683,0.317c0.022,0.052-0.116,0.248-0.154,0.24
				C316.031,61.189,315.906,60.944,315.8,60.69L315.8,60.69z"/>
			<path style="fill:#4C717E;" d="M281.207,88.509c-4.015-2.74-7.888-5.352-11.726-8.012c-3.966-2.748-7.938-5.49-11.839-8.33
				c-10.606-7.72-21.133-15.559-32.218-22.587c-10.171-6.448-20.13-13.229-30.492-19.376c-2.79-1.655-5.501-3.445-8.235-5.192
				c-0.531-0.339-1.318-0.729-0.982-1.468c0.426-0.937,1.311-0.704,2.07-0.343c3.257,1.549,6.515,3.098,9.641,4.906
				c10.931,6.323,21.358,13.447,32.033,20.176c8.55,5.389,16.587,11.479,24.712,17.455c6.499,4.78,12.583,10.09,18.993,14.981
				c2.526,1.928,5.071,3.809,7.285,6.095C280.818,87.194,281.44,87.473,281.207,88.509z"/>
			<path style="fill:#3E5C67;" d="M367.041,111.519c-0.338-0.201-0.417-0.522-0.409-0.883
				C366.975,110.834,367.05,111.157,367.041,111.519z"/>
			<path style="fill:#344E57;" d="M183.448,219.128c1.329,1.317,2.729,2.373,4.467,2.94c0.709,0.231,0.798,1.111,1.201,2.013
				c-1.714-0.221-3.134,0.971-4.686,0.021c-0.389-0.238-0.673-0.514-0.836-0.938C183.07,221.805,182.998,220.615,183.448,219.128z"
				/>
			<path style="fill:#7DA3B1;" d="M200.856,215.449c-0.244-1.88-0.465-3.286-0.601-4.7c-0.172-1.795-0.796-3.317-2.253-4.471
				c-0.605-0.479-1.098-1.1-1.806-1.825C200.172,205.174,202.942,211.424,200.856,215.449z"/>
			<path style="fill:#92B2BE;" d="M108.502,76.979c0.314,0.159,0.729,0.238,0.928,0.489c2.172,2.735,3.549,5.747,3.066,9.356
				c-0.037,0.281-0.118,0.565-0.234,0.823c-0.265,0.588-0.539,1.376-1.323,1.159c-1.004-0.279-0.298-1.024-0.234-1.599
				c0.252-2.25,0.154-4.444-0.975-6.501c-0.609-1.109-1.116-2.275-1.669-3.415C108.207,77.187,108.355,77.083,108.502,76.979z"/>
			<path style="fill:#92B2BD;" d="M155.999,183.616c-0.315,1.842-0.874,3.598-2.012,5.129c-0.279,0.375-0.676,0.553-1.136,0.401
				c-0.544-0.179-0.755-0.609-0.779-1.164c-0.023-0.535,0.225-0.982,0.464-1.417c0.921-1.675,1.433-3.437,1.262-5.367
				c-0.025-0.285-0.015-0.578,0.026-0.861c0.052-0.361,0.184-0.728,0.603-0.77c0.317-0.032,0.497,0.252,0.629,0.51
				C155.615,181.182,155.742,182.398,155.999,183.616z"/>
			<path style="fill:#364F58;" d="M145.332,166.359c0.296,1.083,0.845,1.787,1.706,2.278c0.369,0.211,0.614,0.675,0.495,1.119
				c-0.15,0.562-0.686,0.41-1.09,0.387c-1.638-0.094-3.274-0.006-5.203,0.159C141.989,168.124,143.84,167.534,145.332,166.359z"/>
			<path style="fill:#91B2BD;" d="M152.101,175.954c0.601,0.018,1.649,1.223,1.52,1.768c-0.03,0.124-0.132,0.28-0.242,0.328
				c-0.628,0.275-0.857-0.306-1.192-0.611c-0.367-0.335-0.702-0.732-0.425-1.286C151.811,176.054,151.985,176.018,152.101,175.954z"
				/>
			<path style="fill:#94B4BF;" d="M30.103,131.499c0.072-0.002,0.15-0.021,0.215,0.001c3.875,1.343,8.09,2.154,10.079,6.45
				c0.308,0.665,0.593,1.298,0.309,2.06c-0.359,0.964-0.871,1.113-1.553,0.403c-0.05-0.052-0.108-0.102-0.14-0.164
				c-1.183-2.301-3.11-3.891-5.052-5.513c-0.958-0.8-1.824-1.577-3.104-1.742c-0.35-0.045-0.696-0.188-1.02-0.337
				c-0.338-0.155-0.632-0.413-0.467-0.833C29.487,131.528,29.813,131.509,30.103,131.499z"/>
			<path style="fill:#38525C;" d="M16.095,140.176c-0.245-0.519-0.528-1.024-0.725-1.561c-0.327-0.891-0.024-1.527,0.863-1.905
				c0.724-0.308,1.429-0.661,2.372-1.101c-0.577,1.61-1.107,3.088-1.637,4.566C16.677,140.433,16.386,140.432,16.095,140.176z"/>
			<path style="fill:#4D7481;" d="M16.095,140.176c0.291,0,0.582,0,0.873,0c0,0.274,0.023,0.55-0.007,0.821
				c-0.036,0.326-0.045,0.761-0.527,0.678c-0.292-0.05-0.293-0.408-0.306-0.677C16.115,140.724,16.106,140.45,16.095,140.176z"/>
			<path style="fill:#3E5C67;" d="M42.135,148.836c0.021,0.379-0.057,0.71-0.441,0.888
				C41.711,149.364,41.787,149.033,42.135,148.836z"/>
			<path style="fill:#94B3BF;" d="M117.757,228.56c-0.137,0.951,0.274,2.008-0.38,2.917c-0.201,0.28-0.446,0.598-0.877,0.454
				c-0.309-0.104-0.464-0.403-0.461-0.678c0.023-2.178-0.707-4.265-0.822-6.397c-0.098-1.827-0.728-3.164-2.02-4.346
				c-0.358-0.327-1.248-0.739-0.676-1.299c0.56-0.549,0.978,0.333,1.303,0.699c1.542,1.738,2.607,3.792,3.671,5.838
				C117.949,226.624,117.668,227.598,117.757,228.56z"/>
			<path style="fill:#3E5D68;" d="M120.72,222.719c1.901,2.168,3.802,4.335,5.703,6.503c-1.128-0.064-2.263,0.102-3.386-0.184
				c-0.926-0.236-1.535-0.628-1.412-1.728c0.061-0.547,0.107-1.149-0.391-1.585C121.352,224.674,120.74,223.747,120.72,222.719z"/>
			<path style="fill:#344F59;" d="M97.727,215.702c0.826,0.14,1.684,0.182,2.536,0.764c-1.067,1.166-2.49,1.785-3.377,3.202
				c-1.151-1.796,0.174-2.797,0.818-3.952C97.704,215.717,97.727,215.702,97.727,215.702z"/>
			<path style="fill:#82A7B4;" d="M135.969,243.647c0.07,0.978,0.007,1.903-0.555,2.723c-0.31,0.452-0.707,0.748-1.273,0.549
				c-0.658-0.232-0.482-0.73-0.398-1.253c0.166-1.037,0.327-2.025,0.185-3.149c-0.391-3.09-2.027-5.138-4.586-6.646
				c-0.456-0.269-1.324-0.473-0.89-1.166c0.386-0.616,1.135-0.098,1.513,0.23c2.114,1.835,4.326,3.605,5.569,6.214
				C135.907,241.932,136.087,242.788,135.969,243.647z"/>
			<path style="fill:#354E58;" d="M64.124,187.505c-1.085,1.687-3.574,4.111-4.97,4.883c0.017-0.779,0.303-1.491-0.242-2.231
				c-0.318-0.432,1.642-2.149,2.528-2.191C62.289,187.926,63.14,187.96,64.124,187.505z"/>
			<path style="fill:#759DAB;" d="M73.259,189.026c1.131,1.898,1.648,3.463,1.421,5.211c-0.053,0.409-0.276,0.811-0.491,1.175
				c-0.087,0.147-0.359,0.246-0.552,0.253c-0.317,0.011-0.569-0.218-0.572-0.52C73.042,193.261,72.831,191.365,73.259,189.026z"/>
			<path style="fill:#769EAC;" d="M71.857,186.978c-1.848-0.556-2.67-1.84-3.843-2.621c-0.24-0.16-0.237-0.534-0.088-0.798
				c0.178-0.316,0.493-0.265,0.752-0.122C70.007,184.173,71.174,185.066,71.857,186.978z"/>
			<path style="fill:#3E5C67;" d="M169.85,269.181c2.36,1.089,4.004,3.133,6.098,4.578c0.46,0.318,0.861,0.722,1.288,1.087
				c-1.839-0.657-3.76-0.302-5.64-0.457C171.595,272.459,170.277,270.969,169.85,269.181z"/>
			<path style="fill:#344D56;" d="M155.623,270.851c-1.251,1.683-2.64,2.993-3.711,4.623c-0.017-1.537-2.129-2.764-0.27-4.461
				C152.92,269.846,154.028,269.996,155.623,270.851z"/>
			<path style="fill:#87ABB8;" d="M169.613,273.797c-0.01,0.197-0.09,0.579-0.428,0.754c-0.458,0.237-0.633-0.177-0.778-0.486
				c-0.582-1.244-1.348-2.373-2.123-3.498c-0.254-0.368-0.508-0.828-0.076-1.143c0.448-0.328,0.767,0.163,1.073,0.435
				C168.432,270.881,169.419,272.009,169.613,273.797z"/>
			<path style="fill:#82A8B6;" d="M164.492,268.259c-0.068,0.396-0.339,0.452-0.643,0.413c-0.391-0.05-0.691-0.277-0.762-0.657
				c-0.066-0.353,0.226-0.529,0.531-0.507C164.076,267.542,164.447,267.746,164.492,268.259z"/>
			<path style="fill:#749CAA;" d="M178.574,251.527c0-0.794-0.005-1.588,0.003-2.381c0.003-0.303,0.099-0.596,0.446-0.621
				c0.313-0.023,0.556,0.202,0.64,0.478c0.771,2.542,1.065,5.075-0.255,7.546c-0.284,0.532-0.67,1.055-1.347,0.725
				c-0.564-0.275-0.489-0.907-0.23-1.332C178.675,254.555,178.59,253.042,178.574,251.527z"/>
			<path style="fill:#779FAD;" d="M174.691,242.879c1.451,0.341,2.182,1.285,2.864,2.263c0.155,0.222,0.173,0.578-0.101,0.784
				c-0.27,0.204-0.545,0.078-0.761-0.13C175.884,245.019,174.964,244.314,174.691,242.879z"/>
			<path style="fill:#89ACB9;" d="M163.973,203.613c1.918-0.696,3.676-0.438,5.381,0.384c0.475,0.229,0.79,0.582,1.012,1.057
				c0.173,0.37,0.148,0.681-0.128,0.974c-0.257,0.273-0.545,0.461-0.939,0.302c-0.199-0.08-0.395-0.167-0.588-0.26
				C167.121,205.305,165.702,204.204,163.973,203.613z"/>
			<path style="fill:#89ADB9;" d="M160.142,204.261c-0.026-0.212-0.069-0.316-0.038-0.35c0.71-0.769,1.553-0.986,2.503-0.508
				c0.164,0.082,0.194,0.39,0.011,0.565C161.835,204.719,160.987,204.571,160.142,204.261z"/>
			<path style="fill:#84A8B5;" d="M179.715,279.827c2.374,1.175,3.763,3.256,5.048,5.378c0.546,0.901,0.907,1.93,1.415,2.88
				c0.725,1.359,0.864,2.884,0.439,4.393c-0.128,0.456-0.352,1.024-1.015,0.895c-0.542-0.106-0.582-0.612-0.535-1.033
				c0.172-1.531-0.398-2.972-0.518-4.473c-0.171-2.144-1.4-3.864-2.895-5.39C180.89,281.697,179.878,281.087,179.715,279.827z"/>
			<path style="fill:#39555F;" d="M41.93,214.314c0.405,1.185,0.693,2.452,2.159,2.885c0.528,0.156,0.578,0.632,0.074,0.939
				c-0.606,0.369-2.495-0.076-2.99-0.645c-0.563-0.646-0.398-2.368,0.313-3.084C41.566,214.327,41.751,214.348,41.93,214.314z"/>
			<path style="fill:#507786;" d="M58.675,207.926c0.131,0.154,0.262,0.307,0.392,0.461
				C58.936,208.234,58.805,208.08,58.675,207.926z"/>
			<path style="fill:#7CA2B0;" d="M107.667,57.65c-0.402,0.122-0.576-0.043-0.651-0.231c-1.204-3.025-3.678-4.873-6.178-6.697
				c-0.173-0.126-0.378-0.214-0.538-0.353c-0.5-0.435-1.005-0.902-0.612-1.645c0.37-0.701,1.094-0.745,1.705-0.574
				c1.904,0.532,3.663,1.467,4.795,3.089C107.516,53.142,107.991,55.353,107.667,57.65z"/>
			<path style="fill:#759DAB;" d="M108.392,60.186c-0.237,0.389-0.048,1.224-0.828,1.261c-0.731,0.034-0.653-0.617-0.656-1.113
				c-0.004-0.611,0.296-0.968,0.926-0.924C108.226,59.437,108.533,59.62,108.392,60.186z"/>
		</g>
	</g>
	<g>
		<defs>
			
				<rect id="SVGID_00000126325098857689306650000006367435843875589539_" x="249.412" y="873.458" width="425.588" height="326.542"/>
		</defs>
		<clipPath id="SVGID_00000014601314363975735150000009815153602642283915_">
			<use xlink:href="#SVGID_00000126325098857689306650000006367435843875589539_"  style="overflow:visible;"/>
		</clipPath>
		<g style="clip-path:url(#SVGID_00000014601314363975735150000009815153602642283915_);">
			<path style="fill:#3E5C67;" d="M666.322,1200.37c-7.395-23.568-16.461-46.538-25.006-69.693
				c-8.888-24.085-19.185-47.567-30.378-70.663c-0.418-0.862-0.792-1.745-1.187-2.618c-1.702-2.58-1.88-5.236-1.383-8.346
				c1.772-11.089-3.791-18.68-12.566-24.43c-2.693-1.765-5.838-2.183-9.044-2.13c-1.358,0.023-2.851,0.27-3.762-1.159
				c-0.136-0.244-0.334-0.414-0.599-0.505c-5.646-4.317-11.333-8.577-17.183-12.615c-11.691-5.263-22.224-12.845-34.357-17.201
				c-2.09-0.75-3.242-2.914-5.522-3.207c-0.927-0.156-1.767-0.527-2.556-1.026c-2.814-1.156-2.926-1.471-1.669-4.708
				c0.206-0.18,0.447-0.275,0.72-0.289c0.788,0.05,1.576,0.101,2.368,0.126c3.144,0.761,6.416,1.114,9.241,2.887
				c0.079,0.253,0.064,0.504-0.042,0.747c-0.276,0.55-1.088,0.537-1.369,1.506c7.392,2.516,14.201,6.379,21.381,9.448
				c-5.488-3.527-10.932-7.12-17.298-8.989c-1.074-0.315-2.516-0.272-2.93-1.778c0.499-0.515,1.115-0.635,1.796-0.549
				c0.263,0.026,0.52,0.08,0.774,0.148c7.861,1.583,14.95,5.075,21.881,8.93c0.916,0.509,1.74,1.147,2.822,1.252
				c3.151,1.258,6.194,2.774,9.146,4.444c2.945,1.667,5.713,3.926,8.72,5.408c-1.726-3.399-4.569-6.586-6.699-9.78
				c-2.177-3.264-4.341-6.538-6.629-9.726c-0.409-0.57-0.707-1.202-0.693-1.937c0.258-1.306,0.981-1.027,1.648-0.408
				c3.117,2.895,6.813,4.452,11.003,4.993c1.392,0.18,2.319,1.124,2.927,2.37c6.16,9.502,13.249,18.352,19.425,27.852
				c8.323,12.802,16.217,25.853,23.724,39.145c12.289,21.758,22.681,44.425,32.338,67.445c1.113,2.652,2.337,5.258,3.524,7.878
				c0.061,0.134,0.262,0.206,0.493,0.377c0.805-1.422,0.884-3.026,1.012-4.528c1.524-17.895,3.833-35.736,3.758-53.742
				c-0.006-1.393,0.002-2.787,0.004-4.18c-0.462-5.25-0.104-10.51-0.19-15.765c-0.03-1.799,1.317-1.747,2.551-1.699
				c1.05,0.04,1.732,0.685,2.23,1.555c1.033,1.852,1.431,3.861,1.442,5.963c-0.284,2.198,0.305,4.332,0.562,6.48
				c0.2,1.67-0.171,3.03-1.057,4.424c-5.264,8.281-4.934,16.624,0.963,24.505c1.098,1.468,1.794,3.025,1.549,4.841
				c-0.96,7.116-0.126,14.27-0.508,21.389c-0.392,7.303-0.583,14.602-0.464,21.911c0.313,4.428-0.492,8.81-0.558,13.227
				c-0.043,2.831,0.504,5.473,1.505,8.108c1.474,3.882,3.005,7.76,3.706,11.887c0.242,0.655-0.153,1.424,0.362,2.032
				c0,6.809,0,13.617,0,20.426c-0.817,0.46-1.682,0.223-2.533,0.178c-0.477-0.304-0.681-0.795-0.797-1.303
				c-1.718-7.499-5.077-14.458-7.187-21.829c-0.481-1.681-0.925-3.366-1.19-5.087c-1.349-8.768-4.509-16.999-7.455-25.293
				c-0.545-1.535-1.344-2.952-2.454-4.874c-0.346,2.905,0.19,5.102,0.741,7.236c1.852,7.175,3.779,14.329,7.259,20.951
				c3.295,6.271,4.304,13.226,5.753,20.035c0.491,2.308,1.193,4.548,1.784,6.822c0.303,1.164,0.828,2.362-0.363,3.371
				C668.642,1200.564,667.45,1200.936,666.322,1200.37z"/>
			<path style="fill:#527A89;" d="M663.274,1054.129c1.347,0.067,2.708,0.094,4.108,0.171c1.305,0.072,2.383,0.239,3.657-0.222
				c2.165-0.783,5.153-1.858,5.21-4.604c0.029-1.408,0-2.82,0-4.229c0-4.782,0-9.564,0-14.346c0-8.942,0-17.885,0-26.827
				c0-0.372,0-0.744,0-1.116c-4.094-2.022-8.415-2.974-12.985-2.747c-0.41,0.358-0.275,0.792-0.116,1.186
				c0.572,1.414,0.624,2.515-1.275,2.894c-1.8,0.359-2.349-0.522-2.422-2.096c-0.023-0.509-0.11-1.044-0.561-1.406
				c-1.262-0.109-2.413,0.407-3.555,0.767c-9.002,2.834-14.657,8.833-16.574,18.115c-0.669,3.238-0.875,6.572-0.702,9.893
				c0.373,7.182,3.949,13.895,9.449,18.477c2.737,2.281,5.919,4.028,9.32,5.092C659.011,1053.812,661.125,1054.022,663.274,1054.129
				z"/>
			<path style="fill:#527A89;" d="M676.249,1095.132c-0.419-0.698-0.419-1.396,0-2.095c0-8.428,0-16.856,0-25.284
				c0-0.613,0.242-1.832,0-2.4c-0.501-1.177-2.067,0.06-2.643,0.507c-0.902,0.698-1.812,1.405-2.535,2.287
				c-0.875,1.069-1.42,2.338-2.071,3.543c-0.638,1.181-1.575,2.144-2.189,3.319c-0.887,1.694-1.254,3.67-1.438,5.555
				c-0.301,3.084-0.176,6.243,0.69,9.232c0.869,3,2.403,6.054,4.493,8.451c1.099,1.26,2.407,2.405,3.955,3.076
				c2.566,1.113,1.739-1.474,1.739-3.317C676.249,1097.444,676.575,1095.606,676.249,1095.132z"/>
			<path style="fill:#6893A3;" d="M676.249,1095.132c-0.741-0.698-0.783-1.397,0-2.095
				C676.249,1093.736,676.249,1094.434,676.249,1095.132z"/>
			<path style="fill:#344D56;" d="M451.048,1146.46c-9.218-10.261-16.659-21.702-22.576-34.142
				c-5.326-11.197-10.218-22.587-13.141-34.672c-3.37-13.931-5.451-28.069-5.504-42.444c-0.019-5.163,1.053-10.219,1.687-15.319
				c0.572-4.603,1.421-9.129,3.034-13.487c0.544-1.472,1.161-2.925,2.116-4.19c1.483-1.964,3.249-2.477,5.53-1.514
				c0.953,0.402,1.885,0.939,2.694,1.582c12.95,10.274,25.193,21.285,35.262,34.495c11.685,15.331,19.311,32.407,22.293,51.547
				c2.281,14.645,3.007,29.316,1.435,44.051c-0.985,9.233-3.189,18.194-7.149,26.656c-0.503,0.509-0.26,1.15-0.282,1.732
				c-0.091,2.378-0.56,2.739-2.503,1.329c-6.835-4.961-14.264-8.971-21.346-13.533
				C451.912,1147.981,451.35,1147.316,451.048,1146.46z"/>
			<path style="fill:#344D56;" d="M404.947,1200.319c-0.17,0.052-0.339,0.103-0.509,0.155c-0.956-0.024-1.911-0.069-2.867-0.069
				c-24.448-0.004-48.895,0.003-73.343-0.026c-0.975-0.001-2.096,0.456-2.923-0.519c15.78-14.866,34.194-25.141,54.993-31.04
				c15.186-4.308,30.736-6.089,46.535-5.465c11.354,0.448,22.549,2.013,33.569,4.801c0.671,0.17,1.364,0.255,2.046,0.38
				c1.039,0.378,2.209,0.025,3.22,0.569c0.467,0.179,0.919,0.391,1.371,0.604c5.937,2.492,10.724,6.724,15.824,10.48
				c0.815,0.6,1.397,1.366,0.664,2.437c-2.382,6.874-6.634,12.531-11.546,17.76c-16.595,0.005-33.19,0.009-49.786,0.016
				c-0.693,0-1.387,0.036-2.081,0.056l0.098-0.141c0.329-1.457,1.697-1.302,2.673-1.606c11.327-3.53,22.602-7.218,33.74-11.307
				c4.667-1.714,9.107-3.981,13.632-6.037c1.231-0.56,2.38-1.301,3.778-2.743c-6.327,2.291-11.922,4.693-17.673,6.64
				c-15.452,5.232-31.005,10.146-46.803,14.251C408.036,1199.912,406.449,1199.852,404.947,1200.319z"/>
			<path style="fill:#344D56;" d="M381.942,1136.578c-0.024,1.057-0.788,1.721-1.365,2.458c-1.894,2.423-4.105,4.546-6.669,6.229
				c-12.273,8.057-25.311,14.405-39.853,17.165c-7.228,1.372-14.541,1.448-21.882,0.972c-11.336-0.736-22.111-3.885-32.814-7.381
				c-3.977-1.299-7.961-2.579-11.898-3.991c-3.486-1.25-4.084-2.714-3.101-6.226c0.586-2.094,1.717-3.812,3.152-5.351
				c7.762-8.33,17.027-14.408,27.82-18.006c12.57-4.191,25.504-5.545,38.694-4.26c9.677,0.943,19.066,3.208,28.24,6.394
				c0.648,0.225,1.244,0.603,1.864,0.909c0.112,0.7-0.388,0.965-0.898,1.034c-1.93,0.262-3.87,0.468-5.802,0.042
				c7.615,1.992,14.799,5.334,22.385,7.499C380.97,1134.392,382.576,1134.614,381.942,1136.578z"/>
			<path style="fill:#344D56;" d="M373.562,1126.549c-1.16-0.43-2.136-1.177-3.111-1.896c-5.825-4.296-11.73-8.494-17.266-13.163
				c-9.781-8.249-17.98-17.857-23.341-29.522c-4.367-9.503-6.831-19.573-6.493-30.167c0.053-1.661,0.197-3.317,0.686-4.906
				c0.683-2.218,1.933-3.011,4.276-3.009c1.251,0.001,2.407,0.339,3.574,0.696c13.06,4.001,24.441,10.919,34.721,19.815
				c13.795,11.939,23.458,26.618,29.215,43.875c1.514,4.539,2.717,9.192,2.877,14.032c0.489,2.413,0.17,4.851,0.203,7.276
				c0.03,2.234-1.698,1.903-3.01,1.703c-3.356-0.512-6.67-1.268-10.067-1.562c-2.601-0.225-5.2-0.524-7.789-0.881
				C376.284,1128.599,374.576,1128.244,373.562,1126.549z"/>
			<path style="fill:#5B8898;" d="M520.818,926.13c1.928-2.444,2.978-5.433,4.006-8.64c1.809-5.641,2.355-11.641,0.529-17.355
				c-1.494-4.673-3.938-8.749-8.234-11.425c-3.495-2.177-7.353-3.591-11.173-5.051c-1.191-0.455-2.547-0.594-3.87-0.477
				c-10.977,0.972-17.562,6.914-22.635,17.689c-0.292,0.62-0.411,1.335-0.531,2.02c-2.52,14.403,8.837,28.551,23.235,29.887
				c5.211,0.484,10.567-0.746,15.046-3.453C518.687,928.421,519.861,927.343,520.818,926.13z"/>
			<path style="fill:#3E5C67;" d="M523.203,1198.601c-15.171-13.451-31.86-25.201-48.521-36.722
				c-5.327-3.684-10.93-6.937-16.316-10.528c-0.96-0.564-1.923-1.123-2.888-1.678c-0.658-0.378-2.164-1.653-2.902-1.653
				c-0.601-0.522-1.305-0.824-2.079-0.978c-5.255-2.71-10.598-5.225-16.117-7.363c-10.763-4.169-21.998-6.438-33.32-8.372
				c-1.92-0.328-1.9-0.327-1.902-2.294c-0.003-2.245,0.285-4.513-0.458-6.709c-0.017,2.267-0.073,4.534-0.035,6.8
				c0.021,1.264-0.541,1.764-1.738,1.626c-0.514-0.059-1.023-0.178-1.526-0.299c-3.797-0.916-7.676-1.321-11.543-1.757
				c-3.504-0.395-7.093-0.297-10.295-2.125c-0.402,0.957-1.193,0.523-1.793,0.414c-2.551-0.464-5.17-0.586-7.638-1.475
				c-0.853,0.922-1.965,0.477-2.965,0.523c-1.344,0.062-2.707-0.073-3.873,0.82c1.529,1.124,3.457,1.06,5.095,1.781
				c3.184,1.402,6.452,2.566,9.743,3.671c2.79,0.937,5.596,1.829,8.421,2.654c0.911,0.266,1.289,0.787,1.392,1.64
				c0.578-0.813,1.307-0.627,2.099-0.375c1.91,0.607,3.829,1.187,5.755,1.737c15.509,4.425,30.825,9.44,45.93,15.092
				c7.618,2.851,14.602,6.999,21.749,10.808c5.008,2.67,9.768,5.775,14.42,9.02c2.286,1.595,4.551,3.22,6.806,4.859
				c4.385,3.186,8.69,6.581,13.081,9.816c4.604,3.393,9.129,6.9,13.443,10.656c0.755,0.657,1.52,1.333,2.436,1.736
				c2.166,0.954,5.086,0.413,7.405,0.427c2.787,0.016,5.575,0.032,8.362,0.046c0.512,0.003,1.045,0.032,1.388-0.474
				C524.277,1199.485,523.723,1199.062,523.203,1198.601z"/>
			<path style="fill:#5B8898;" d="M520.563,987.023c0.434-3.15,1.368-6.197,0.621-9.421c-0.68-2.932-1.962-5.691-3.623-8.193
				c-1.331-1.096-1.834-3.043-3.708-3.588c-0.13-0.249-0.333-0.412-0.595-0.505c-5.543-4.251-13.731-6.377-20.647-5.461
				c-8.234,1.091-13.141,6.877-16.199,14.139c-2.851,6.768-1.504,13.184,1.353,19.525c0.686-2.281,2.318-3.961,3.534-5.904
				c1.034,0.503,1.201,1.414,1.628,2.15c0.857,1.479,0.8,2.362-1.229,2.532c-1.362,0.114-2.795,0.264-3.933,1.222
				c0.595,0.625,1.081,1.328,1.586,2.027c3.884,5.371,8.897,8.99,15.632,9.845c4.042,0.513,7.942-0.254,11.859-1.183
				c3.701-0.878,6.741-2.731,9.257-5.501c2.6-2.862,4.077-6.043,4.288-9.926C520.42,988.19,520.483,987.605,520.563,987.023z"/>
			<path style="fill:#344D56;" d="M521.762,1102.48c0.847-10.763,3.095-21.182,7.703-31.007c1.701-3.627,3.36-7.28,5.413-10.728
				c1.908-3.205,3.603-3.479,6.524-1.076c5.353,4.404,10.028,9.449,13.818,15.252c5.717,8.754,11.335,17.576,16.155,26.869
				c2.367,4.563,4.428,9.271,6.02,14.171c0.04,1.356-1.083,1.154-1.847,1.304c-6.503,1.271-10.983,4.988-13.517,11.087
				c-0.47,1.074-0.226,2.241-0.44,3.347c-0.211,1.091-0.765,1.489-1.848,1c-1.966-0.889-3.622-2.079-4.331-4.244
				c-0.59-1.562-1.232-3.11-1.574-4.758c-0.024-0.259-0.012-0.517,0.024-0.774c0.099-0.507,0.216-1.01,0.315-1.518
				c1.615-6.898-0.177-12.859-4.939-18.006c-0.472-0.511-0.959-1.009-1.274-1.644c-2.338-7.168-3.255-14.621-4.432-22.022
				c-0.528-3.323-0.958-6.665-2.086-9.863c-0.143,7.698,0.864,15.291,1.753,22.897c0.195,1.667,1.061,3.388-0.013,5.071
				c-0.245,0.152-0.512,0.229-0.8,0.234c-0.556-0.034-1.086-0.201-1.62-0.34c-5.678-1.896-10.655-0.409-15.312,3.02
				C524.382,1101.54,523.595,1103.22,521.762,1102.48z"/>
			<path style="fill:#618FA0;" d="M572.489,949.497c0.149-0.193,0.298-0.362,0.446-0.542c-0.006-0.005-0.012-0.009-0.017-0.013
				c0.033-0.031,0.067-0.056,0.1-0.087c0.326-0.386,0.661-0.736,1.007-1.073c-0.054-0.025-0.107-0.047-0.162-0.081
				c0.463-1.099,0.911-2.217,1.4-3.317c2.812-6.319,1.118-12.633-0.001-18.95c-1.351,0.92-2.606,1.949-3.674,3.196
				c-0.395,0.461-0.844,1.04-1.476,0.446c-0.77-0.724-1.226-1.705-1.294-2.743c-0.046-0.709,0.737-0.538,1.194-0.648
				c1.391-0.333,2.917-0.044,4.194-0.908c-1.336-2.362-3.073-4.397-5.07-6.219c-6.289-5.737-15.094-6.791-22.493-2.624
				c-5.317,2.995-9.101,8.124-11.649,13.581c-0.304,0.65-0.556,1.298-0.76,1.943c-1.825,5.755,0.167,11.289,3.517,16.446
				c2.646,4.074,6.71,6.854,11.283,8.372c3.478,1.154,6.263,1.835,9.839,0.811c0.837-0.24,1.805-0.333,2.521,0.163
				c0.95,0.659,1.343,0.83,2.229-0.194c1.529-1.766,2.711-3.873,4.573-5.285c1.198-0.908,2.603-1.466,4.054-1.891
				C572.319,949.753,572.391,949.624,572.489,949.497z"/>
			<path style="fill:#5D8A9A;" d="M561.677,957.731c0.362-0.538,0.74-1.067,1.125-1.587c2.483-3.347,5.21-6.026,9.32-7.255
				c6.147-1.838,13.744-1.625,19.059,2.273c4.687,3.437,7.975,7.963,9.76,13.438c1.016,3.115,1.062,6.432,0.093,9.654
				c-0.449,1.494-0.882,2.998-1.658,4.374c-0.43,0.763-0.784,1.561-0.561,2.48c-0.038,0.296-0.076,0.591-0.115,0.886
				c-1.511-0.143-1.275-1.889-2.305-2.506c-0.769-0.46-1.328-1.565-2.431-0.83c-0.79,0.527-1.588,1.239-1.469,2.281
				c0.133,1.176,1.236,1.244,2.155,1.485c1.09,0.286,2.396-0.162,3.346,0.544c-1.438,2.014-4.409,3.836-6.571,5.026
				c-1.595,0.878-3.439,1.541-5.263,1.669c-7.897,0.556-14.909-0.869-21.078-6.004c-0.328,0.64-1.303,0.211-1.816-0.292
				c-0.886-0.869-1.731-1.8-2.326-2.889c-0.733-1.341-1.057-2.862-1.372-4.358c-0.949-4.51-2.071-9.211-0.397-13.681
				C559.799,960.771,560.681,959.213,561.677,957.731z"/>
			<path style="fill:#6391A1;" d="M607.763,1054.851c0.432-0.793,0.741-1.609,0.863-2.43c0.431-2.91,0.799-5.846,0.676-8.785
				c-0.243-5.795-2.859-9.709-6.5-13.984c-4.622-5.427-12.33-10.006-19.509-7.636c-0.347,0.115-0.693,0.246-1.038,0.393
				c-7.739,3.323-13.728,11.334-13.265,19.939c0.169,3.142,0.837,6.197,1.857,9.188c1.537,4.504,4.381,7.858,8.528,10.151
				c4.603,2.545,9.539,3.126,14.681,2.532c0.249-0.698-0.221-1.147-0.572-1.634c-1.825-2.54-1.605-3.166,1.428-3.911
				c0.55-0.135,1.218-0.587,1.671,0.072c0.333,0.484-0.082,0.99-0.302,1.454c-0.561,1.183-1.268,2.361-0.107,3.595
				c0.784,0.834,5.78-2.705,6.447-3.252C604.37,1059.113,606.551,1057.074,607.763,1054.851z"/>
			<path style="fill:#6391A1;" d="M530.707,1183.567c-3.688-2.827-6.856-6.799-7.874-11.208c-0.747-3.235-0.368-6.754-0.157-10.02
				c0.201-3.099,2.17-5.873,4.337-7.962c3.793-3.655,9.653-7.104,15.051-7.07c5.911,0.037,11.449,2.838,15.764,6.736
				c4.904,4.53,7.384,9.997,6.491,16.769c-0.033,0.935-0.249,1.827-0.649,2.673c-0.202,0.456-0.401,0.915-0.541,1.397
				c-0.062,0.245-0.144,0.482-0.231,0.719c-1.91,4.292-5.115,7.287-9.315,9.29c-6.116,2.916-13.745,4.153-19.949,0.622
				C532.643,1184.949,531.658,1184.296,530.707,1183.567z"/>
			<path style="fill:#4F7684;" d="M563.297,1007.969c-0.197-0.442-0.293-0.892-0.289-1.33c-3.864-1.643-7.298-4.078-10.966-6.081
				c-5.124-2.799-10.315-5.437-15.614-7.897c-2.717-1.261-5.7-2.014-8.178-3.802c-0.271,0.133-0.545,0.261-0.815,0.395
				c0.049,0.08,0.1,0.157,0.136,0.256c-0.341,0.393-0.659,0.797-1.014,1.165c-5.875,6.069-7.878,13.36-6.875,21.62
				c0.765,6.292,3.22,11.538,8.976,14.797c5.743,3.252,11.798,3.886,18.185,2.37c8.377-1.988,16.88-10.684,16.26-20.499
				C563.082,1008.625,563.034,1008.237,563.297,1007.969z"/>
			<path style="fill:#446672;" d="M521.637,931.115c0.558-0.086,0.611-0.516,0.652-0.956c2.345,1.54,3.637,4.033,5.41,6.079
				c6.486,7.483,12.667,15.22,18.704,23.071c0.74,0.962,1.591,1.843,2.51,2.645c0.63,0.55,1.136,1.117,0.571,2.003
				c-5.568,8.473-19.566,11.489-28.955,6.133c-1.113-0.744-2.175-1.57-3.339-2.244c-0.206-0.121-0.397-0.264-0.582-0.415
				c-0.898-0.774-1.698-1.627-2.147-2.753l0.005,0.009c-0.241-0.138-0.411-0.338-0.52-0.592c-2.428-3.658-4.428-7.48-5.036-11.925
				c-0.872-6.37,0.962-11.857,5.098-16.691C516.046,933.097,519.012,932.425,521.637,931.115z"/>
			<path style="fill:#5E8C9D;" d="M587.904,1165.115c1.307-0.592,1.851-1.308,2.573-2.539c0.484-0.825,1.105-1.561,1.65-2.347
				c3.233-4.668,3.177-10.67,1.696-15.949c-2.208-7.872-9.332-15.101-17.838-15.712c-5.197-0.373-9.454,1.869-13.115,5.398
				c-3.577,3.096-6.179,9.629-5.962,14.331c0.26,5.655,4.398,11.129,8.387,14.863c4.938,4.622,10.777,5.243,17.051,3.792
				c3.51-0.812,2.667-2.912,0.031-4.377c-0.198-0.11-0.403-0.242-0.493-0.451c-0.164-0.382,0.127-0.797,0.408-1.104
				c0.425-0.462,0.887-0.916,1.466-1.157c0.58-0.241,1.306-0.224,1.775,0.193c0.283,0.252,0.439,0.612,0.588,0.961
				C586.693,1162.36,587.182,1163.833,587.904,1165.115z"/>
			<path style="fill:#6390A1;" d="M555.317,1114.415c-0.906-4.896-2.895-8.934-6.446-12.462c-0.917-0.911-1.887-1.772-2.943-2.517
				c-3.695-2.604-8.441-3.546-12.88-2.82c-4.223,0.69-7.093,3.028-10.448,5.489c-0.298,0.219-0.6,0.44-0.839,0.723
				c-0.9,1.064-1.449,2.934-2.016,4.224c-0.689,1.568-1.236,3.178-1.345,4.899c-0.233,3.678,0.794,7.322,2.053,10.74
				c0.369,1,0.779,1.995,1.374,2.88c0.015-0.146,0.031-0.291,0.046-0.437c-0.188,1.787,4.878,4.872,6.149,5.639
				c2.585,1.562,5.487,2.617,8.497,2.934c7.164,0.755,14.898-3.015,17.642-9.892
				C555.295,1120.972,555.879,1117.451,555.317,1114.415z"/>
			<path style="fill:#3E5C67;" d="M635.063,1198.686c-12.648-14.82-26.766-28.136-41.62-40.7c-1.559,1.062-2.246,2.911-3.689,4.089
				c-0.397,0.323,0.011,0.777,0.077,1.169c0.024,2.146,2.049,2.674,3.247,3.744c7.275,6.501,13.734,13.778,20.334,20.926
				c0.417,0.394,0.87,0.746,1.281,1.149c0.284,0.287,0.591,0.543,0.933,0.773c0.127,0.074,0.231,0.158,0.325,0.254
				c-0.099,0.089-0.204,0.067-0.306-0.051c-0.391-0.315-0.767-0.674-1.14-1.031c-0.537-0.487-1.164-0.861-1.733-1.308
				c-3.827-3.005-8.963-5.047-13.327-7.147c-3.382-1.628-6.75-3.288-10.184-4.803c-3.415-1.507-6.999-2.539-10.447-3.993
				c-4.299-1.813-9.161-2.155-13.048-5.018c-2.502,0.577-1.518,2.836-2.096,4.341c-0.184,0.87-0.368,1.74-0.552,2.61
				c-0.314,0.286-0.194,0.771-0.489,1.066c-0.013,0.169-0.022,0.339-0.028,0.508c0.322,0.969,1.206,1.205,2.019,1.446
				c3.998,1.189,7.758,2.972,11.564,4.629c4.641,2.02,9.192,4.24,13.781,6.372c0.144-0.516,0.909-0.392,1.388-0.152
				c3.481,1.743,6.888,3.644,10.173,5.735c1.737,1.115,3.442,2.279,5.12,3.48c0.919,0.658,3.691,3.535,4.734,3.535
				c1.194,0.004,2.388,0.008,3.581,0.013c-0.629-2.559-3.461-2.666-4.829-4.332c2.517,1.621,4.963,3.468,7.949,4.324
				c3.15,0.143,6.3,0.15,9.45-0.003c-0.805-2.696-2.927-4.459-4.795-6.289c-5.678-5.56-10.783-11.608-15.802-17.745
				c-4.125-5.043-7.972-10.327-12.418-14.64c2.345,2.029,4.433,4.767,6.668,7.372c3.562,4.152,6.666,8.678,11.072,12.116
				c4.461,3.482,8.327,7.627,12.13,11.845c2.3,2.551,4.284,5.502,7.319,7.351c1.545,0.141,3.089,0.12,4.633-0.028
				C635.915,1199.756,635.507,1199.206,635.063,1198.686z"/>
			<path style="fill:#344D56;" d="M521.148,1136.566c0-4.175,0-8.349,0-12.547c0.906-0.116,1.034,0.626,1.331,1.037
				c3.622,5.007,8.652,7.323,14.678,7.795c3.358,0.263,6.58-0.243,9.659-1.621c0.233-0.114,0.416-0.293,0.602-0.467l0.008-0.001
				c3.116,0.31,5.206,1.957,6.342,4.857c2.04,5.612,2.906,11.521,4.364,17.28c0.163,0.643,0.315,1.448-0.795,1.493
				c-3.002-2.553-6.315-4.631-10.095-5.737c-5.903-1.727-11.301-0.178-16.32,3.046c-2.208,1.419-4.109,3.206-5.556,5.4
				c-0.74,1.121-1.046,0.167-1.519-0.153C522.422,1150.224,521.489,1143.434,521.148,1136.566z"/>
			<path style="fill:#507785;" d="M592.443,1140.165c-1.603-1.69-3.176-3.41-4.815-5.064c-2.817-2.845-6.312-4.596-10.086-5.685
				c-1.893-0.546-3.936-0.462-5.908,0.161c-3.189,1.007-6.077,2.507-8.497,4.845c-1.603-0.381-1.934-1.565-1.831-2.978
				c0.08-1.106-0.271-2.244,0.24-3.317c2.01-4.224,5.059-8.248,9.416-10.227c6.654-3.022,16.518-0.987,20.607,5.308
				C595.114,1128.665,595.79,1134.325,592.443,1140.165z"/>
			<path style="fill:#3E5C67;" d="M549.55,963.708c-0.193-0.31-0.395-0.616-0.628-0.897c-0.373-0.448-0.822-0.825-1.256-1.215
				c-2.991-2.682-4.918-6.13-7.448-9.198c-2.87-3.48-5.682-7.009-8.556-10.486c-2.765-3.345-5.564-6.663-8.385-9.962
				c-0.468-0.547-0.326-1.384-0.989-1.791c-0.604-1.251-2.726-1.965-2.351-3.187c0.552-1.799,1.694-3.574,3.421-4.724
				c2.05,1.746,3.882,3.714,5.693,5.697c1.071,1.171,2.275,2.122,3.742,2.732c0.241,0.352,0.708,0.23,0.998,0.477
				c0,0,0.056,0.033,0.057,0.033c0.828,1.965,0.695,4.103,0.908,6.141c1.021,9.812,7.625,17.266,17.244,18.995
				c1.285,0.231,2.185,0.99,3.235,1.566c1.496,0.82,3.163,1.947,3.698,3.647c0.328,1.043,0.33,2.158,0.285,3.25
				c-0.077,1.852-0.28,3.718-0.121,5.571c0.161,1.869,0.025,3.957,0.475,5.765c0.125,0.503,0.369,1.152,0.112,1.603
				c-0.975,1.71-2.368-2.268-2.788-2.854c-2.548-3.555-4.885-7.151-7.184-10.899C549.658,963.883,549.604,963.795,549.55,963.708z"
				/>
			<path style="fill:#344D56;" d="M533.282,1184.667c6.306,3.291,12.648,2.785,19.007,0.172c0.479-0.197,0.941-0.437,1.41-0.657
				c1.396,0.006,1.194,1.179,1.139,1.889c-0.395,5.065,1.31,9.231,5.071,12.611c0.444,0.399,0.773,0.959,0.552,1.642
				c-7.495,0.031-14.99,0.061-22.485,0.092c-2.532-4.51-4.754-9.159-6.304-14.107c-0.438-0.441,0.045-1.205-0.558-1.587l0.006,0.019
				c-0.179-0.558-0.459-1.171,0.575-1.088l-0.001-0.003c0.271,0.315,0.774,0.2,1.024,0.553l0.003-0.004
				C532.91,1184.352,533.097,1184.509,533.282,1184.667z"/>
			<path style="fill:#36505A;" d="M594.057,1064.22c-0.407-1.018-1.436-1.464-2.078-2.264c-1.26-1.572-1.004-2.384,0.805-3.209
				c1.192-0.543,2.437-0.852,3.682-1.176c0.952-0.247,1.282,0.32,1.151,1.155c-0.078,0.497-0.229,1.058-0.539,1.429
				c-0.909,1.089-1.067,2.313-0.903,3.642C595.573,1065.275,595.573,1065.275,594.057,1064.22z"/>
			<path style="fill:#374F57;" d="M663.264,1000.209c0.044,0.165,0.06,0.346,0.138,0.493c2.068,3.893,0.765,3.876-2.289,4.301
				c-1.826,0.254-1.975,0.006-2.16-1.922c-0.073-0.76-0.413-1.521-0.062-2.295C660.47,997.429,660.47,997.429,663.264,1000.209z"/>
			<path style="fill:#324A52;" d="M598.156,983.014c-1.955,0.171-3.907,0.492-5.731-0.677c-0.89-0.57-1.207-1.146-0.65-2.111
				c0.702-1.216,1.514-2.708,2.873-2.733c1.273-0.023,2.158,1.443,3.05,2.442c0.523,0.586,0.361,1.522,1.004,2.059
				c-0.037,0.164-0.075,0.329-0.112,0.494c-0.069,0.226-0.207,0.395-0.414,0.509L598.156,983.014z"/>
			<path style="fill:#354D56;" d="M575.263,925.435c-0.132,0.505-0.212,1.055-0.679,1.372c-1.233,0.836-2.31,1.794-3.123,3.082
				c-0.528,0.835-1.152,0.82-1.8-0.109c-0.915-1.312-1.481-2.72-1.849-4.421c2.213-0.118,4.227-1.027,6.396-0.58
				C574.559,924.997,574.911,925.216,575.263,925.435z"/>
			<path style="fill:#39545E;" d="M673.625,1200.318c-1.219,0.134-2.437,0.139-3.655-0.006c0.406-2.099-0.76-3.923-1.285-5.782
				c-1.203-4.261-1.841-8.625-2.869-12.911c-1.014-4.226-2.437-8.268-4.426-12.145c-2.47-4.814-4.074-9.97-5.475-15.18
				c-0.764-2.843-1.583-5.673-2.031-8.597c-0.201-1.31-0.117-2.606-0.131-3.909c-0.004-0.346,0.063-0.727,0.481-0.82
				c0.382-0.086,0.687,0.14,0.849,0.453c0.882,1.703,1.971,3.342,2.564,5.143c2.09,6.354,4.853,12.491,6.219,19.079
				c0.633,3.052,1.218,6.115,1.914,9.152c0.441,1.929,0.921,3.866,1.599,5.721c2.172,5.949,4.487,11.847,6.06,17.996
				C673.586,1199.091,673.566,1199.715,673.625,1200.318z"/>
			<path style="fill:#324B54;" d="M640.616,1111.111c-0.036,0.55-0.034,0.916-0.452,1.048c-0.397,0.125-0.65-0.147-0.909-0.37
				c-0.616-0.532-0.896-1.283-1.23-1.987c-2.869-6.045-5.783-12.075-7.822-18.468c-1.856-5.82-4.556-11.265-7.13-16.782
				c-2.165-4.642-4.297-9.312-6.151-14.102c-1.003-2.592-2.431-5.019-3.669-7.519c-0.309-0.625-0.644-1.239-0.928-1.875
				c-0.236-0.531-0.831-1.24-0.193-1.634c0.792-0.49,1.436,0.162,1.861,0.868c1.524,2.534,3.207,4.972,4.403,7.699
				c1.572,3.584,3.197,7.146,4.839,10.699c1.821,3.942,3.367,7.968,4.415,12.199c0.413,1.667,1.259,3.238,1.996,4.811
				c1.848,3.943,3.815,7.83,5.605,11.799c1.819,4.033,3.83,7.997,4.935,12.321C640.315,1110.317,640.512,1110.8,640.616,1111.111z"
				/>
			<path style="fill:#324B54;" d="M633.925,1089.85c1.763,0.772,2.583,1.921,3.323,3.205c3.738,6.489,6.367,13.47,9.29,20.333
				c1.666,3.912,2.702,8.058,4.667,11.843c0.678,1.305,0.408,2.919,1.286,4.195c0.229,0.333,0.26,0.895-0.297,1.064
				c-0.522,0.159-0.803-0.276-0.961-0.676c-1.399-3.553-3.365-6.867-4.526-10.514c-1.031-3.241-2.513-6.286-3.938-9.35
				c-2.53-5.437-5.204-10.807-7.808-16.209C634.417,1092.609,633.885,1091.463,633.925,1089.85z"/>
			<path style="fill:#324B54;" d="M533.269,985.686c2.17,1.339,4.69,1.769,7.034,2.651c3.793,1.428,7.09,3.684,10.528,5.719
				c1.123,0.665,2.305,1.232,3.4,1.939c0.453,0.293,1.185,0.731,0.672,1.433c-0.372,0.509-0.956,0.129-1.423-0.091
				c-3.064-1.439-6.168-2.802-9.18-4.343c-3.807-1.948-7.75-3.554-11.747-5.045c-0.406-0.152-0.837-0.254-1.218-0.453
				c-0.41-0.215-0.641-0.618-0.584-1.083c0.063-0.51,0.456-0.702,0.935-0.716c0.523-0.016,1.047-0.015,1.57-0.022
				C533.255,985.675,533.269,985.686,533.269,985.686z"/>
			<path style="fill:#334B54;" d="M575.622,991.517c0.794,0.163,1.251,0.836,1.771,1.405c3.457,3.79,6.195,8.116,9.07,12.333
				c0.922,1.352,1.502,2.94,2.205,4.436c0.153,0.326,0.062,0.728-0.314,0.859c-0.195,0.068-0.525-0.032-0.7-0.173
				c-0.405-0.325-0.809-0.679-1.115-1.094c-3.491-4.744-7.249-9.29-10.515-14.198c-0.525-0.788-0.926-1.679-1.254-2.571
				C574.557,991.932,574.875,991.505,575.622,991.517z"/>
			<path style="fill:#557886;" d="M535.867,985.64c2.998-1.801,8.045-0.429,11.021,0.776c3.515,1.423,6.789,3.647,9.39,6.408
				c0.318,0.337,4.375,2.913,3.19,3.176c-0.28,0.062-0.556-0.096-0.801-0.246c-3.525-2.173-7.202-4.1-10.993-5.765
				c-1.904-0.836-3.863-1.533-5.829-2.205C539.967,987.143,537.515,986.717,535.867,985.64z"/>
			<path style="fill:#334B54;" d="M665.769,1119.999c-0.299-1.854-1.221-3.572-0.643-5.499c0.241-0.805,0.152-1.73,0.112-2.595
				c-0.164-3.481,0.221-6.929,0.543-10.382c0.05-0.534,0.195-1.016,0.458-1.478c0.294-0.515,0.723-0.73,1.299-0.644
				c0.648,0.097,0.827,0.573,0.835,1.131c0.02,1.48,0.134,2.971,0.001,4.438C667.914,1110.031,667.235,1115.063,665.769,1119.999z"
				/>
			<path style="fill:#334B54;" d="M575.487,1010.81c-0.102,0.314-0.303,0.445-0.586,0.453c-0.579,0.015-0.931-0.412-1.361-0.697
				c-3.335-2.211-6.698-4.382-9.998-6.643c-0.958-0.657-2.22-1.265-2.197-2.661c0.011-0.667,1.952-0.544,3.507,0.618
				c3.335,2.493,6.801,4.827,9.845,7.692C575.06,1009.912,575.549,1010.221,575.487,1010.81z"/>
			<path style="fill:#334C55;" d="M666.271,1130.948c0,3.117-0.769,6.189-0.529,9.324c0.033,0.435-0.11,0.944-0.587,1.058
				c-0.706,0.168-0.802-0.456-0.965-0.935c-0.14-0.411-0.386-0.822-0.392-1.236c-0.048-3.457-0.551-6.934,0.381-10.354
				c0.09-0.332,0.128-0.689,0.277-0.992c0.202-0.412,0.576-0.656,1.053-0.618c0.523,0.042,0.744,0.415,0.755,0.886
				C666.287,1129.036,666.271,1129.992,666.271,1130.948z"/>
			<path style="fill:#344D56;" d="M588.811,1015.964c-0.972-0.307-1.583-1.186-2.242-1.965c-0.554-0.654-0.668-1.548,0-2.119
				c0.798-0.681,1.156,0.344,1.633,0.725c0.762,0.608,1.288,1.419,1.522,2.366C589.872,1015.574,589.612,1015.987,588.811,1015.964z
				"/>
			<path style="fill:#6D98A7;" d="M644.268,1021.392c-0.148-1.018,0.28-2.345,0.778-3.65c0.249-0.652,0.558-1.308,1.151-1.715
				c0.686-0.472,1.393-1.287,2.303-0.607c0.728,0.544,0.568,1.383,0.274,2.162c-1.492,3.955-2.224,8.023-1.858,12.262
				c0.037,0.424,0.025,0.896-0.126,1.282c-0.209,0.537-0.649,0.496-1.009,0.112c-0.169-0.18-0.352-0.453-0.343-0.677
				C645.556,1027.576,644.295,1024.773,644.268,1021.392z"/>
			<path style="fill:#6C97A6;" d="M648.353,1036.041c1.486,0.096,6.134,4.615,6.328,6.166c0.079,0.628-0.228,1.005-0.851,1.038
				c-0.424,0.022-0.926,0.066-1.27-0.124c-1.91-1.056-3.627-2.347-4.72-4.311c-0.353-0.634-0.447-1.305-0.349-2.009
				C647.559,1036.312,647.833,1036.029,648.353,1036.041z"/>
			<path style="fill:#6D98A7;" d="M673.864,1091.702c-3.089-1.239-5.148-3.41-6.229-6.478c-0.424-1.203-1.042-2.361-0.389-3.748
				c0.335-0.712,0.749-1.207,1.448-1.334c0.886-0.162,1.27,0.587,1.423,1.241C670.948,1084.946,672.459,1088.245,673.864,1091.702z"
				/>
			<path style="fill:#364F59;" d="M588.257,1186.262c1.294,0.176,1.032,1.179,1.042,2.007c0.036,2.863,0.05,5.726,0.073,8.589
				c0.318,1.166,0,2.307-0.133,3.456c-2.397,0.147-4.795,0.183-7.192-0.012c-0.161-0.617,0.273-0.963,0.646-1.29
				c2.769-2.426,4.039-5.687,5.084-9.074c0.492-0.984,0.381-2.014,0.223-3.048C587.999,1186.645,588.082,1186.434,588.257,1186.262z
				"/>
			<path style="fill:#4F7583;" d="M588.265,1189.928c-0.881,4.172-2.663,7.804-6.217,10.373c-2.303,0.005-4.607,0.009-6.91,0.014
				c-1.529-1.337-3.346-1.334-5.704,0.01c-2.991,0-5.982-0.001-8.973-0.001c-0.495-0.939-1.352-1.553-2.083-2.271
				c-2.845-2.796-4.301-6.12-4.214-10.155c0.026-1.23,0.499-2.585-0.464-3.716c3.994-1.949,6.812-5.071,8.904-8.919
				c8.057,2.631,15.682,6.315,23.444,9.663c0.783,0.338,1.475,0.885,2.21,1.335c0.001,0.174,0.005,0.349,0.013,0.523
				C588.654,1187.833,588.661,1188.881,588.265,1189.928z"/>
			<path style="fill:#38525C;" d="M569.434,1200.326c-0.066-0.902,0.193-1.515,1.251-1.501c0.771,0.01,1.568,0.079,2.311-0.077
				c2.029-0.427,2.021-0.469,2.142,1.568C573.237,1200.496,571.335,1200.491,569.434,1200.326z"/>
			<path style="fill:#37525C;" d="M627.532,1200.31c-2.907-3.345-5.843-6.659-9.026-9.756c-3.487-3.392-6.431-7.268-9.587-10.959
				c-5.127-5.997-9.592-12.554-15.274-18.079c-0.457-0.445-1.113-0.833-0.973-1.614c0.763-0.379,1.055,0.18,1.407,0.505
				c3.778,3.489,7.146,7.377,10.209,11.472c3.107,4.154,6.884,7.525,10.816,10.815c3.138,2.626,5.99,5.576,8.663,8.675
				c0.562,0.652,1.061,1.377,1.695,1.965c2.3,2.135,4.303,4.532,6.245,6.986C630.316,1200.456,628.924,1200.463,627.532,1200.31z"/>
			<path style="fill:#38535D;" d="M614.963,1200.32c-1.041-1.348-2.638-1.953-3.97-2.904c-0.996-0.711-1.812-1.507-2.668-2.451
				c0.4-0.149,0.616-0.304,0.703-0.251c3.026,1.854,6.04,3.727,9.055,5.598C617.043,1200.315,616.003,1200.318,614.963,1200.32z"/>
			<path style="fill:#4C717E;" d="M404.947,1200.319c1.738-1.062,3.759-1.35,5.662-1.844c10.938-2.84,21.708-6.215,32.496-9.567
				c9.561-2.971,18.888-6.546,28.257-10.029c0.977-0.363,1.903-0.861,2.861-1.276c0.239-0.103,0.549-0.132,0.688,0.15
				c0.105,0.214,0.188,0.517,0.118,0.726c-0.26,0.781-0.903,1.281-1.532,1.734c-1.56,1.121-3.272,1.976-5.006,2.803
				c-8.493,4.054-17.292,7.344-26.242,10.19c-7.038,2.237-13.955,4.862-21.128,6.669c-0.347,0.087-0.669,0.164-0.907,0.445
				C415.125,1200.319,410.036,1200.319,404.947,1200.319z"/>
			<path style="fill:#4C717E;" d="M468.316,1143.482c0.16,2.708-0.074,5.387-0.506,8.056c-0.085,0.524-0.161,1.032-0.446,1.485
				c-0.623,0.988-1.66,0.976-2.27-0.023c-0.33-0.54-0.428-1.133-0.426-1.755c0.004-0.873-0.02-1.746-0.007-2.618
				c0.09-5.93-0.701-11.785-1.643-17.61c-0.901-5.567-2.056-11.096-3.611-16.523c-2.349-8.202-5.064-16.286-7.946-24.316
				c-1.646-4.586-3.27-9.18-4.953-13.754c-1.926-5.233-4.183-10.32-6.304-15.466c-2.52-6.114-5.204-12.16-7.753-18.263
				c-2.649-6.343-5.299-12.687-7.323-19.271c-1.665-5.417-2.949-10.893-3.068-16.592c-0.008-0.363-0.087-0.745,0.318-0.857
				c0.584-0.162,0.732,0.352,0.844,0.749c1.918,6.79,4.199,13.46,6.878,19.982c2.083,5.07,4.335,10.073,6.593,15.069
				c3.335,7.376,6.54,14.81,9.852,22.194c3.784,8.435,6.97,17.088,9.886,25.836c3.625,10.876,7.528,21.695,9.632,33.006
				c0.791,4.249,1.443,8.54,1.841,12.872C468.144,1138.287,468.272,1140.878,468.316,1143.482z"/>
			<path style="fill:#4C717E;" d="M274.011,1145.489c1.586-1.238,2.963-1.005,4.202-1.055c3.813-0.152,7.638-0.158,11.444,0.183
				c6.096,0.547,12.21,0.404,18.292,0.125c2.943-0.135,5.91-0.152,8.848-0.414c4.4-0.393,8.809-0.687,13.188-1.374
				c3.077-0.483,6.203-0.689,9.287-1.195c3.934-0.646,7.875-1.244,11.812-1.872c7.032-1.121,13.95-2.786,20.897-4.318
				c0.828-0.183,1.749-0.132,2.594,0.008c0.692,0.115,1.31,0.615,1.362,1.397c0.052,0.77-0.622,0.925-1.21,1.136
				c-4.674,1.674-9.429,3.063-14.276,4.138c-6.012,1.333-12.055,2.516-18.131,3.511c-2.993,0.49-6.011,0.835-9.021,1.214
				c-4.127,0.519-8.257,1.013-12.387,1.505c-0.518,0.062-1.045,0.042-1.568,0.064c-4.606,0.188-9.215,0.141-13.828,0.362
				c-4.545,0.217-9.178-0.266-13.763-0.726c-3.454-0.346-6.915-0.603-10.335-1.216
				C279.063,1146.54,276.723,1146.032,274.011,1145.489z"/>
			<path style="fill:#4C717E;" d="M332.995,1052.54c2.002,2.358,4.298,4.35,6.265,6.643c1.923,2.242,3.79,4.526,5.784,6.712
				c4.277,4.688,8.538,9.391,12.757,14.132c5.329,5.989,10.169,12.339,14.907,18.774c5.333,7.244,9.886,14.962,13.212,23.349
				c0.301,0.758,1.225,1.86,0.021,2.568c-1.375,0.809-1.801-0.561-2.305-1.388c-2.444-4.011-4.778-8.09-7.266-12.073
				c-4.752-7.606-10.241-14.676-15.893-21.628c-4.223-5.195-8.721-10.149-13.083-15.221c-4.186-4.867-8.696-9.497-12.028-15.056
				C334.12,1057.274,332.866,1055.208,332.995,1052.54z"/>
			<path style="fill:#779FAD;" d="M485.587,906.099c-0.129-1.658,0.173-3.148,1.434-4.318c0.373-0.347,0.703-0.805,1.33-0.569
				c0.654,0.246,1.018,0.732,0.903,1.41c-0.635,3.729,1.201,6.938,2.099,10.349c0.258,0.978,0.939,1.649,1.382,2.485
				c0.282,0.532,0.751,0.966,0.703,1.636c-0.046,0.637-0.404,1.129-0.974,0.671C488.707,914.746,485.738,911.235,485.587,906.099z"
				/>
			<path style="fill:#769EAC;" d="M500.781,922.776c-1.224-0.353-2.929-0.358-4.286-1.433c-0.734-0.582-1.256-1.362-0.719-2.252
				c0.431-0.714,1.223-0.425,1.89-0.184c1.708,0.619,3.416,1.238,5.125,1.856c0.413,0.149,0.845,0.315,0.789,0.853
				c-0.04,0.384-0.409,0.54-0.716,0.694C502.321,922.582,501.776,922.864,500.781,922.776z"/>
			<path style="fill:#36505A;" d="M479.071,1169.763c1.336-0.025,2.479,0.47,3.516,1.211c3.318,2.373,6.537,4.875,9.657,7.505
				c4.045,3.41,8.205,6.688,12.16,10.199c2.999,2.663,6.183,5.047,9.458,7.336c0.521,0.364,1.184,0.738,1.196,1.565
				c-0.797,0.424-1.396-0.122-1.922-0.474c-3.741-2.512-7.575-4.89-11.078-7.749c-4.639-3.787-9.216-7.644-13.74-11.57
				c-2.68-2.326-5.273-4.784-8.243-6.773C479.69,1170.755,479.044,1170.634,479.071,1169.763z"/>
			<path style="fill:#779FAD;" d="M481.949,975.534c-0.03-2.134,2.654-6.069,4.594-6.804c0.837-0.317,1.11,0.033,1.16,0.802
				c0.058,0.887-0.118,1.705-0.501,2.518c-0.702,1.489-1.39,2.991-1.959,4.533c-0.354,0.959-0.654,1.911-1.894,1.688
				c-1.167-0.21-1.285-1.252-1.397-2.216C481.932,975.884,481.949,975.708,481.949,975.534z"/>
			<path style="fill:#37525B;" d="M477.764,993.518c-0.084-1.472-0.186-2.802,1.38-3.856c0.905-0.609,1.288-1.991,1.993-3.171
				c2.207,1.159,2.451,3.541,3.394,5.441c0.181,0.364-0.134,0.944-0.667,0.869C481.76,992.506,479.831,993.58,477.764,993.518
				L477.764,993.518z"/>
			<path style="fill:#749DAC;" d="M491.687,968.226c-0.585-0.284-1.421-0.418-1.258-1.361c0.193-1.124,1.229-1.118,2.043-1.279
				c0.659-0.13,0.921,0.413,0.93,0.972C493.416,967.379,492.457,968.283,491.687,968.226z"/>
			<path style="fill:#4B707E;" d="M548.499,1101.906c-1.964-1.604-4.008-3.085-6.319-4.162c0.573-0.074,1.111-0.31,0.935-0.969
				c-0.761-2.862-0.659-5.848-1.296-8.724c-0.376-1.699-0.397-3.463-0.523-5.162c-0.345-4.67-0.994-9.343-0.679-14.05
				c0.034-0.506-0.057-1.199,0.637-1.215c0.578-0.013,0.767,0.591,0.895,1.126c0.928,3.877,1.6,7.793,2.207,11.738
				c1.052,6.842,2.03,13.715,4.001,20.383C548.455,1101.202,548.454,1101.561,548.499,1101.906z"/>
			<path style="fill:#3E5C67;" d="M561.546,1128.126c0.001,0.523,0.066,1.056-0.008,1.568c-0.266,1.856,0.298,3.411,1.599,4.726
				c-1.639,1.659-2.698,3.686-3.669,5.769c-1.873-0.422-2.148-2.707-3.91-3.319c-0.863-0.3-1.524-1.066-2.408-1.401
				c-1.007-2.666-3.622-3.376-5.726-4.708c1.088-1.205,2.689-1.813,3.663-3.15c1.729-1.309,3.108,0.606,4.705,0.513
				c0.86,2.278,2.739,3.405,4.939,4.316C561.596,1131.119,560.346,1129.362,561.546,1128.126z"/>
			<path style="fill:#4B6F7C;" d="M555.793,1128.125c-0.097,0.737-0.398,1.21-1.15,0.631c-1.061-0.816-2.196-1.302-3.555-1.144
				c1.04-1.401,2.081-2.802,3.121-4.203C554.737,1124.981,555.265,1126.553,555.793,1128.125z"/>
			<path style="fill:#4B707E;" d="M542.178,1097.743c-0.439,0.015-0.824-0.085-1.059-0.501
				C541.56,1097.221,541.944,1097.323,542.178,1097.743z"/>
			<path style="fill:#7CA2B0;" d="M543.792,943.207c-2.878-1.807-4.022-4.468-4.852-7.489c-0.54-1.968-0.124-3.581,0.734-5.22
				c0.369-0.704,0.934-1.242,1.801-1.368c1.261-0.183,2.042,0.369,1.672,1.569c-1.178,3.821,0.185,7.374,0.887,11.003
				C544.119,942.131,544.295,942.53,543.792,943.207z"/>
			<path style="fill:#7AA1AF;" d="M554.397,948.594c0.093,0.438-0.221,0.606-0.482,0.828c-1.882,1.606-6.258-0.663-6.88-2.344
				c-0.355-0.96,0.498-1.969,1.605-1.665c1.995,0.548,3.838,1.505,5.5,2.764C554.267,948.271,554.319,948.462,554.397,948.594z"/>
			<path style="fill:#789FAE;" d="M564.7,969.523c0-0.348-0.008-0.695,0.001-1.043c0.027-0.973,0.507-1.8,1.407-1.962
				c1.087-0.195,1.806,0.618,2.059,1.605c0.978,3.805,3.531,6.665,5.74,9.732c0.358,0.497,0.884,0.927,0.333,1.573
				c-0.375,0.439-0.869,0.475-1.423,0.334C569.162,978.828,564.718,973.243,564.7,969.523z"/>
			<path style="fill:#759EAC;" d="M578.432,981.994c-0.822-0.002-1.506-0.37-2.157-0.817c-0.307-0.211-0.521-0.556-0.399-0.889
				c0.351-0.959,0.99-1.264,2.049-0.977c0.957,0.26,2.316-0.12,2.377,1.386C580.347,981.826,579.373,982.008,578.432,981.994z"/>
			<path style="fill:#7DA3B1;" d="M577,1033.183c0.77,0.719,0.906,1.594,0.601,2.585c-0.433,1.408-0.533,2.892-1.064,4.288
				c-0.657,1.728-0.398,3.357,0.619,4.968c1.344,2.13,2.521,4.367,3.737,6.575c0.371,0.674,0.857,1.424,0.162,2.161
				c-0.722,0.765-1.56,0.536-2.405,0.156c-3.501-1.575-5.547-5.513-4.732-9.215c0.381-1.73,0.081-3.477,0.214-5.209
				c0.153-1.998,0.359-3.999,1.791-5.59C576.206,1033.588,576.47,1033.208,577,1033.183z"/>
			<path style="fill:#4C717F;" d="M553.151,1135.47c0.396-0.556,0.784-0.401,1.279-0.079c1.98,1.29,3.949,2.578,5.038,4.798
				c-0.528,1.999-1.304,3.9-1.733,5.964c-0.768,3.699,0.746,6.593,2.382,9.53c0.412,0.74,1.015,1.406,1.383,2.194
				c0.945,2.024,2.68,3.346,4.232,4.832c-0.273,1.391,1.115,2.775,0.018,4.169c-1.245,1.126-1.589,2.699-2.08,4.199
				c-0.005-0.95-0.096-1.909,0-2.849c0.506-4.982-1.816-8.802-4.963-12.299c-0.46-0.511-0.914-1.027-1.371-1.54
				c0.859-0.722,0.447-1.536,0.22-2.38C556.072,1146.502,554.616,1140.985,553.151,1135.47z"/>
			<path style="fill:#84A8B6;" d="M540.918,1182.24c-0.749,0.515-1.457,0.448-2.093,0.191c-3.643-1.469-6.632-3.694-8.284-7.401
				c-0.237-0.531-0.733-1.184-0.004-1.586c0.555-0.306,0.855,0.338,1.163,0.757c2.141,2.915,5.086,4.898,8.021,6.893
				C540.133,1181.375,540.707,1181.464,540.918,1182.24z"/>
			<path style="fill:#344D56;" d="M526.197,1160.785c0.25,0,0.505,0.027,0.751-0.004c2.148-0.275,3.036,0.701,2.286,2.639
				c-0.346,0.894-0.724,1.696-0.483,2.716c0.103,0.436-0.184,1.038-0.804,1.168c-0.52,0.109-0.796-0.226-0.96-0.659
				c-0.562-1.485-2.24-2.251-2.281-4.176C524.669,1160.731,524.385,1160.737,526.197,1160.785z"/>
			<path style="fill:#82A7B4;" d="M545.951,1183.291c-0.731,0.074-1.448-0.043-1.572-0.903c-0.111-0.775,0.637-0.984,1.177-1.18
				c1.221-0.444,2.506-0.629,3.805-0.647c0.357-0.005,0.671,0.192,0.815,0.546c0.161,0.396-0.115,0.648-0.356,0.889
				C548.751,1183.063,547.339,1183.129,545.951,1183.291z"/>
			<path style="fill:#4F7583;" d="M563.119,1173.689c0.008,0.434-0.088,0.82-0.489,1.066
				C562.605,1174.313,562.704,1173.929,563.119,1173.689z"/>
			<path style="fill:#58757F;" d="M533.282,1184.667c-0.187-0.156-0.375-0.312-0.562-0.468
				C532.907,1184.355,533.095,1184.511,533.282,1184.667z"/>
			<path style="fill:#6C97A6;" d="M526.386,1003.512c1.102,0.067,1.573,0.891,1.527,1.599c-0.241,3.717,1.649,6.666,3.291,9.713
				c0.779,1.444,1.955,2.655,2.525,4.224c0.168,0.462,0.681,0.952,0.246,1.424c-0.482,0.523-1.162,0.327-1.696,0.028
				c-3.751-2.101-6.751-4.848-7.935-9.191c-0.562-2.062-0.775-4.085,0.053-6.122
				C524.785,1004.232,525.373,1003.553,526.386,1003.512z"/>
			<path style="fill:#6894A4;" d="M540.897,1023.867c-1.629,0.111-2.657,0.026-3.584-0.571c-0.553-0.356-0.875-0.82-0.863-1.501
				c0.013-0.792,0.595-0.944,1.185-1.163c1.53-0.566,3.066-0.591,4.59-0.064c0.741,0.256,1.557,0.63,1.427,1.61
				c-0.127,0.957-0.826,1.515-1.76,1.674C541.384,1023.938,540.85,1023.867,540.897,1023.867z"/>
			<path style="fill:#344D56;" d="M565.751,1166.88c0.024-0.708-0.252-1.35-0.411-2.022c-0.173-0.732-0.394-1.556,0.393-2.148
				c4.829,4.36,10.454,5.077,16.551,3.602c0.505-0.122,1-0.297,1.488-0.478c0.908-0.337,1.061-0.858,0.284-1.501
				c-0.738-0.612-1.566-0.981-2.528-1.232c-1.255-0.328-1.388-1.206-0.39-2.036c1.052-0.875,1.937-1.988,3.404-2.316
				c0.774-0.173,1.305-0.272,1.652,0.633c0.365,0.951,1.219,1.706,1.073,2.869c-0.041,0.326,0.022,0.926,0.178,0.978
				c2.325,0.778,0.954,2.751,1.379,4.127c-0.295,1.843,0.301,3.613,0.438,5.42c0.078,1.027,0.014,2.065,0.014,3.259
				c-2.502-0.05-4.483-1.239-6.485-2.045c-4.595-1.849-9.323-3.271-14.036-4.725C567.304,1168.817,566.316,1168.232,565.751,1166.88
				z"/>
			<path style="fill:#82A7B4;" d="M571.581,1159.606c-2.462,0.272-4.219-0.778-4.93-2.254c-1.681-3.493-3.876-6.765-4.916-10.559
				c-0.408-1.49,0.313-2.706,0.915-3.944c0.265-0.545,0.812-0.615,1.353-0.475c0.488,0.126,0.715,0.534,0.673,0.988
				c-0.187,2.003,0.436,3.946,0.404,5.932c-0.036,2.235,0.286,4.185,2.309,5.722
				C568.915,1156.176,570.034,1157.872,571.581,1159.606z"/>
			<path style="fill:#85A9B6;" d="M525.712,1109.344c0.76,0.118,1.147,0.569,1.259,1.217c0.416,2.402,1.672,4.59,2.016,6.96
				c0.422,2.913,2.176,4.432,4.587,5.484c1.197,0.522,2.377,1.05,3.416,1.838c0.471,0.357,1.067,0.785,0.745,1.492
				c-0.344,0.757-1.102,0.875-1.797,0.65c-1.503-0.485-3.028-1.107-3.867-2.503c-1.124-1.87-2.789-3.051-4.536-4.201
				c-3.174-2.089-3.423-5.444-3.574-8.74C523.918,1110.591,524.438,1109.476,525.712,1109.344z"/>
			<path style="fill:#3E5C67;" d="M547.417,1130.763c-0.2,0.156-0.4,0.312-0.601,0.468
				C547.016,1131.075,547.217,1130.919,547.417,1130.763z"/>
			<path style="fill:#38535D;" d="M588.125,1183.422c3.946,1.214,7.667,2.832,10.914,5.487c-0.596,0.685-1.171,0.574-1.569,0.316
				C594.396,1187.23,590.89,1185.927,588.125,1183.422z"/>
			<path style="fill:#769EAC;" d="M571.446,1121.664c-0.075,0.189-0.127,0.458-0.272,0.661c-0.753,1.06-1.535,2.099-2.294,3.155
				c-0.357,0.496-0.8,0.658-1.339,0.361c-0.513-0.283-0.744-0.729-0.5-1.305c0.669-1.58,1.878-2.701,3.285-3.584
				C570.819,1120.642,571.341,1120.912,571.446,1121.664z"/>
			<path style="fill:#344D56;" d="M551.227,958.629c0.101,0.052,0.363,0.124,0.54,0.288c1.855,1.712,3.35,3.691,4.358,6.018
				c0.176,0.407,0.243,0.866-0.249,1.104c-0.377,0.182-0.692-0.104-0.865-0.386c-1.219-1.989-2.914-3.582-4.405-5.344
				c-0.282-0.333-0.566-0.68-0.323-1.149C550.446,958.844,550.684,958.598,551.227,958.629z"/>
			<path style="fill:#3E5C67;" d="M588.265,1189.928c0.002-1.048,0.003-2.096,0.005-3.144
				C589.037,1187.834,589.041,1188.882,588.265,1189.928z"/>
			<path style="fill:#779FAD;" d="M560.454,1188.742c0.074,0.624,0.169,1.398,0.256,2.173c0.042,0.37-0.05,0.7-0.423,0.852
				c-0.388,0.159-0.662-0.038-0.852-0.367c-0.833-1.436-1.618-2.9-1.731-4.595c-0.033-0.5,0.117-1.025,0.248-1.521
				c0.173-0.656,0.628-1.076,1.322-1.034c0.701,0.042,1.121,0.538,1.163,1.2C560.502,1186.492,560.454,1187.539,560.454,1188.742z"
				/>
			<path style="fill:#709AA9;" d="M563.366,1194.812c-0.396,0.492-0.917,0.405-1.396,0.225c-0.507-0.19-0.873-0.584-0.855-1.161
				c0.007-0.216,0.173-0.533,0.355-0.619c0.578-0.273,0.957,0.104,1.281,0.535C562.99,1194.109,563.508,1194.259,563.366,1194.812z"
				/>
		</g>
	</g>
</g>
</svg>
